<svg width="20" height="20" viewBox="0 0 20 20" fill="none" xmlns="http://www.w3.org/2000/svg">
<g clip-path="url(#clip0_893_3769)">
<path fill-rule="evenodd" clip-rule="evenodd" d="M4.375 1.875V18.125H11.5625C11.8111 18.125 12.0496 18.2238 12.2254 18.3996C12.4012 18.5754 12.5 18.8139 12.5 19.0625C12.5 19.3111 12.4012 19.5496 12.2254 19.7254C12.0496 19.9012 11.8111 20 11.5625 20H3.75C3.41848 20 3.10054 19.8683 2.86612 19.6339C2.6317 19.3995 2.5 19.0815 2.5 18.75V1.25C2.5 0.91848 2.6317 0.600538 2.86612 0.366117C3.10054 0.131697 3.41848 6.12365e-07 3.75 6.12365e-07H12.055C12.2229 -0.000165606 12.3892 0.0335082 12.5438 0.0990117C12.6984 0.164515 12.8383 0.260505 12.955 0.381251L17.1488 4.72625C17.3741 4.95933 17.5 5.27083 17.5 5.595V7.8125C17.5 8.06114 17.4012 8.2996 17.2254 8.47541C17.0496 8.65123 16.8111 8.75 16.5625 8.75C16.3139 8.75 16.0754 8.65123 15.8996 8.47541C15.7238 8.2996 15.625 8.06114 15.625 7.8125V7.5H12.1875C11.6073 7.5 11.0509 7.26953 10.6407 6.8593C10.2305 6.44906 10 5.89266 10 5.3125V1.875H4.375ZM11.875 1.9625L15.41 5.625H12.1875C12.1046 5.625 12.0251 5.59208 11.9665 5.53347C11.9079 5.47487 11.875 5.39538 11.875 5.3125V1.9625ZM16.25 18.75C16.0014 18.75 15.7629 18.6512 15.5871 18.4754C15.4113 18.2996 15.3125 18.0611 15.3125 17.8125V15.9375H13.4375C13.1889 15.9375 12.9504 15.8387 12.7746 15.6629C12.5988 15.4871 12.5 15.2486 12.5 15C12.5 14.7514 12.5988 14.5129 12.7746 14.3371C12.9504 14.1613 13.1889 14.0625 13.4375 14.0625H15.3125V12.1875C15.3125 11.9389 15.4113 11.7004 15.5871 11.5246C15.7629 11.3488 16.0014 11.25 16.25 11.25C16.4986 11.25 16.7371 11.3488 16.9129 11.5246C17.0887 11.7004 17.1875 11.9389 17.1875 12.1875V14.0625H19.0625C19.3111 14.0625 19.5496 14.1613 19.7254 14.3371C19.9012 14.5129 20 14.7514 20 15C20 15.2486 19.9012 15.4871 19.7254 15.6629C19.5496 15.8387 19.3111 15.9375 19.0625 15.9375H17.1875V17.8125C17.1875 18.0611 17.0887 18.2996 16.9129 18.4754C16.7371 18.6512 16.4986 18.75 16.25 18.75Z" fill="white"/>
</g>
<defs>
<clipPath id="clip0_893_3769">
<rect width="20" height="20" fill="white"/>
</clipPath>
</defs>
</svg>
