<svg width="20" height="20" viewBox="0 0 20 20" fill="none" xmlns="http://www.w3.org/2000/svg">
<path d="M6 8C7.65685 8 9 6.65685 9 5C9 3.34315 7.65685 2 6 2C4.34315 2 3 3.34315 3 5C3 6.65685 4.34315 8 6 8ZM6 8V18.5" stroke="white" stroke-width="1.5" stroke-linecap="round"/>
<path d="M14 12.5C12.3431 12.5 11 13.8431 11 15.5C11 17.1569 12.3431 18.5 14 18.5C15.6569 18.5 17 17.1569 17 15.5C17 13.8431 15.6569 12.5 14 12.5ZM14 12.5L14 2" stroke="white" stroke-width="1.5" stroke-linecap="round"/>
</svg>
