<svg width="12" height="12" viewBox="0 0 12 12" fill="none" xmlns="http://www.w3.org/2000/svg">
<path d="M6 12C6.78808 12.001 7.56859 11.8463 8.29668 11.5447C9.02477 11.2431 9.68607 10.8006 10.2426 10.2426C10.8006 9.68607 11.2431 9.02477 11.5447 8.29668C11.8463 7.56859 12.001 6.78808 12 6C12.001 5.21192 11.8463 4.43142 11.5447 3.70333C11.2431 2.97524 10.8006 2.31393 10.2426 1.7574C9.68607 1.19941 9.02477 0.756904 8.29668 0.45531C7.56859 0.153717 6.78808 -0.00101608 6 5.02096e-06C5.21192 -0.000999644 4.43142 0.153741 3.70333 0.455333C2.97524 0.756926 2.31393 1.19943 1.7574 1.7574C1.19943 2.31393 0.756926 2.97524 0.455333 3.70333C0.153741 4.43142 -0.000999644 5.21192 5.02096e-06 6C-0.00101608 6.78808 0.153717 7.56859 0.45531 8.29668C0.756904 9.02477 1.19941 9.68607 1.7574 10.2426C2.31393 10.8006 2.97524 11.2431 3.70333 11.5447C4.43142 11.8463 5.21192 12.001 6 12Z" fill="#7000FF"/>
<path d="M3.60059 5.99971L5.40058 7.7997L9.00058 4.19971" stroke="white" stroke-width="1.5" stroke-linecap="round" stroke-linejoin="round"/>
</svg>
