<svg width="24" height="24" viewBox="0 0 24 24" fill="none" xmlns="http://www.w3.org/2000/svg"><path d="M21.3,18.5L15.8,3.3c-0.2-0.5-0.6-0.9-1-1.1C14.3,2,13.7,2,13.3,2.2l-1.7,0.6C11.2,2.3,10.6,2,10,2H4
	C2.9,2,2,2.9,2,4v16c0,1.1,0.9,2,2,2h6c1.1,0,2-0.9,2-2v-9.5l3.7,10.1c0.3,0.8,1.1,1.3,1.9,1.3c0.2,0,0.5,0,0.7-0.1l1.9-0.7
	c0.5-0.2,0.9-0.6,1.1-1C21.5,19.6,21.5,19,21.3,18.5z M4,4h2v16H4V4z M10,20H8V4h2V20z M19.5,19.3L17.5,20L12,4.7L14,4L19.5,19.3
	C19.5,19.3,19.5,19.3,19.5,19.3z" fill="white"/>
</svg>
