<svg width="40" height="56" viewBox="0 0 40 56" fill="none" xmlns="http://www.w3.org/2000/svg">
<rect width="40" height="56" rx="4" fill="#141414"/>
<rect x="11.6562" y="17.8281" width="16.6406" height="20.2969" rx="2.625" stroke="#727272" stroke-width="1.5" stroke-linejoin="round"/>
<path d="M23.75 25.75C24.5784 25.75 25.25 25.0784 25.25 24.25C25.25 23.4216 24.5784 22.75 23.75 22.75C22.9216 22.75 22.25 23.4216 22.25 24.25C22.25 25.0784 22.9216 25.75 23.75 25.75Z" stroke="#727272" stroke-width="1.5" stroke-miterlimit="10"/>
<path d="M21.9147 31.7287L18.2983 28.1375C18.0682 27.9086 17.7589 27.7758 17.4337 27.7662C17.1084 27.7566 16.7918 27.871 16.5484 28.0859L11.7031 32.372M18.7236 35.5469L23.6434 30.652C23.8684 30.4277 24.1696 30.2952 24.4878 30.2805C24.8059 30.2658 25.1181 30.37 25.3631 30.5726L28.2969 33.007" stroke="#727272" stroke-width="1.5" stroke-linecap="round" stroke-linejoin="round"/>
</svg>
