<svg width="24" height="24" viewBox="0 0 24 24" fill="none" xmlns="http://www.w3.org/2000/svg">
<path d="M10.9761 8.99927C10.9761 9.26448 10.8707 9.51884 10.6832 9.70637C10.4956 9.89391 10.2413 9.99927 9.97607 9.99927C9.71086 9.99927 9.4565 9.89391 9.26897 9.70637C9.08143 9.51884 8.97607 9.26448 8.97607 8.99927C8.97607 8.73405 9.08143 8.4797 9.26897 8.29216C9.4565 8.10462 9.71086 7.99927 9.97607 7.99927C10.2413 7.99927 10.4956 8.10462 10.6832 8.29216C10.8707 8.4797 10.9761 8.73405 10.9761 8.99927ZM13.9711 9.99927C14.2363 9.99927 14.4906 9.89391 14.6782 9.70637C14.8657 9.51884 14.9711 9.26448 14.9711 8.99927C14.9711 8.73405 14.8657 8.4797 14.6782 8.29216C14.4906 8.10462 14.2363 7.99927 13.9711 7.99927C13.7059 7.99927 13.4515 8.10462 13.264 8.29216C13.0764 8.4797 12.9711 8.73405 12.9711 8.99927C12.9711 9.26448 13.0764 9.51884 13.264 9.70637C13.4515 9.89391 13.7059 9.99927 13.9711 9.99927Z" fill="white"/>
<path fill-rule="evenodd" clip-rule="evenodd" d="M19 20.9993V9.99927C19 9.08001 18.8189 8.16976 18.4672 7.32048C18.1154 6.4712 17.5998 5.69953 16.9497 5.04952C16.2997 4.39951 15.5281 3.88389 14.6788 3.53211C13.8295 3.18033 12.9193 2.99927 12 2.99927C11.0807 2.99927 10.1705 3.18033 9.32122 3.53211C8.47194 3.88389 7.70026 4.39951 7.05025 5.04952C6.40024 5.69953 5.88463 6.4712 5.53284 7.32048C5.18106 8.16976 5 9.08001 5 9.99927V20.9993H7.828L9.243 19.5853L10.657 20.9993H13.343L14.757 19.5853L16.172 20.9993H19ZM17 9.99927C17 8.67319 16.4732 7.40142 15.5355 6.46373C14.5979 5.52605 13.3261 4.99927 12 4.99927C10.6739 4.99927 9.40215 5.52605 8.46447 6.46373C7.52678 7.40142 7 8.67319 7 9.99927V18.9993L9.243 16.7563L12 19.5143L14.757 16.7563L17 18.9993V9.99927Z" fill="white"/>
</svg>
