<svg width="186" height="34" viewBox="0 0 186 34" fill="none" xmlns="http://www.w3.org/2000/svg">
<path d="M175.194 22.9709C175.36 23.2199 175.733 23.4586 176.314 23.6868C176.916 23.8943 177.518 23.9981 178.12 23.9981C179.095 23.9981 179.821 23.801 180.299 23.4067C180.797 22.9917 181.046 22.4522 181.046 21.7882C181.046 21.1034 180.745 20.5535 180.143 20.1385C179.541 19.7027 178.524 19.1736 177.093 18.5511L176.221 18.1775C174.789 17.5758 173.721 16.8495 173.015 15.9987C172.31 15.148 171.957 14.0482 171.957 12.6994C171.957 11.7656 172.237 10.9356 172.797 10.2093C173.357 9.4623 174.146 8.88128 175.163 8.46627C176.18 8.05126 177.352 7.84375 178.68 7.84375C179.655 7.84375 180.485 7.906 181.17 8.03051C181.876 8.15501 182.612 8.32101 183.38 8.52852C183.795 8.67377 184.106 8.75678 184.314 8.77753V12.855H181.855L181.139 10.4895C181.014 10.2819 180.734 10.0952 180.299 9.92919C179.863 9.76318 179.365 9.68018 178.804 9.68018C177.954 9.68018 177.269 9.86693 176.75 10.2404C176.252 10.5932 176.003 11.0912 176.003 11.7345C176.003 12.3155 176.18 12.8031 176.532 13.1974C176.885 13.5709 177.269 13.8614 177.684 14.0689C178.099 14.2764 178.867 14.6188 179.987 15.0961C181.108 15.5733 182.031 16.0299 182.757 16.4656C183.504 16.9014 184.117 17.472 184.594 18.1775C185.092 18.8623 185.341 19.7027 185.341 20.6987C185.341 22.2343 184.739 23.4793 183.536 24.4339C182.332 25.3884 180.599 25.8656 178.338 25.8656C177.279 25.8656 176.325 25.7723 175.474 25.5855C174.644 25.3988 173.679 25.1497 172.579 24.8385L171.895 24.6206V20.512H174.478L175.194 22.9709Z" fill="#E1E4E2"/>
<path d="M162.469 25.8656C159.73 25.8656 157.686 25.0667 156.338 23.4689C155.01 21.8504 154.346 19.6508 154.346 16.8703C154.346 15.0027 154.688 13.3842 155.373 12.0146C156.078 10.6451 157.064 9.59717 158.33 8.8709C159.595 8.14463 161.058 7.78149 162.718 7.78149C164.794 7.78149 166.391 8.33139 167.512 9.43117C168.632 10.5102 169.213 12.0561 169.255 14.0689C169.255 15.4385 169.172 16.4552 169.006 17.1193H158.89C158.973 19.0076 159.419 20.4809 160.228 21.5391C161.038 22.5767 162.189 23.0954 163.683 23.0954C164.493 23.0954 165.323 22.9606 166.173 22.6908C167.045 22.421 167.73 22.0994 168.228 21.7259L169.006 23.4378C168.446 24.0396 167.533 24.5999 166.267 25.1186C165.022 25.6166 163.756 25.8656 162.469 25.8656ZM164.897 15.2517C164.939 14.6707 164.96 14.2246 164.96 13.9133C164.96 11.1535 164.036 9.77355 162.189 9.77355C161.173 9.77355 160.384 10.1782 159.824 10.9875C159.263 11.7967 158.952 13.2182 158.89 15.2517H164.897Z" fill="#E1E4E2"/>
<path d="M145.853 2.77021L143.55 2.36557V0.68477L149.308 0H149.37L150.211 0.591392V23.4067L152.483 23.6557V25.5232H143.674V23.6557L145.853 23.3755V2.77021Z" fill="#E1E4E2"/>
<path d="M126.076 20.6676C126.076 18.7793 127.02 17.3579 128.909 16.4034C130.818 15.4488 133.277 14.9612 136.285 14.9405V14.2246C136.285 13.3738 136.192 12.7098 136.005 12.2325C135.839 11.7552 135.518 11.4025 135.04 11.1742C134.584 10.9252 133.91 10.8007 133.017 10.8007C132 10.8007 131.087 10.9356 130.278 11.2053C129.469 11.4544 128.628 11.7864 127.757 12.2014L126.792 10.2093C127.103 9.93956 127.622 9.61793 128.348 9.24442C129.095 8.87091 129.977 8.54927 130.994 8.27951C132.011 7.98901 133.059 7.84375 134.138 7.84375C135.736 7.84375 136.981 8.05126 137.873 8.46627C138.786 8.88128 139.44 9.5453 139.834 10.4583C140.228 11.3714 140.425 12.5956 140.425 14.1312V23.6557H142.106V25.3988C141.691 25.5025 141.1 25.6063 140.332 25.71C139.564 25.8138 138.89 25.8656 138.309 25.8656C137.603 25.8656 137.126 25.7619 136.877 25.5544C136.649 25.3469 136.534 24.9215 136.534 24.2782V23.4378C135.974 24.0603 135.248 24.6206 134.356 25.1186C133.463 25.6166 132.457 25.8656 131.336 25.8656C130.382 25.8656 129.5 25.6685 128.691 25.2743C127.902 24.8592 127.269 24.2678 126.792 23.5001C126.315 22.7116 126.076 21.7674 126.076 20.6676ZM133.329 23.2822C133.764 23.2822 134.262 23.1577 134.823 22.9087C135.383 22.6389 135.87 22.3173 136.285 21.9438V16.8391C134.418 16.8391 133.017 17.1608 132.083 17.804C131.17 18.4266 130.714 19.2358 130.714 20.2319C130.714 21.2279 130.942 21.9853 131.399 22.504C131.876 23.0228 132.519 23.2822 133.329 23.2822Z" fill="#E1E4E2"/>
<path d="M111.637 4.45104L107.186 4.60667L105.972 11.3921H103.357L103.886 2.39673H123.963L124.336 11.3921H121.877L120.663 4.60667L116.275 4.45104V23.3445L120.632 23.6557V25.5233H107.653V23.6557L111.637 23.3445V4.45104Z" fill="#E1E4E2"/>
<path d="M80.3281 16.9634C80.3281 15.1788 80.6809 13.5914 81.3864 12.2011C82.1127 10.8108 83.1398 9.73181 84.4679 8.96404C85.8167 8.17551 87.3833 7.78125 89.1679 7.78125C89.9979 7.78125 90.7138 7.8435 91.3156 7.96801C91.9173 8.09251 92.5917 8.25851 93.3387 8.46602L94.2414 8.71503L94.0546 14.0376H91.3467L90.5685 10.6137C90.444 10.0742 89.8319 9.80443 88.7321 9.80443C87.5701 9.80443 86.6571 10.3128 85.993 11.3296C85.3498 12.3464 85.0178 13.9338 84.997 16.0919C84.997 18.3744 85.3913 20.1279 86.1798 21.3521C86.9683 22.5557 88.0162 23.1574 89.3235 23.1574C90.9006 23.1574 92.3531 22.7321 93.6811 21.8813L94.397 23.4998C93.8575 24.0808 93.0275 24.6204 91.907 25.1184C90.8072 25.6164 89.614 25.8654 88.3275 25.8654C85.6714 25.8654 83.669 25.0457 82.3202 23.4064C80.9921 21.7672 80.3281 19.6195 80.3281 16.9634Z" fill="#E1E4E2"/>
<path d="M73.6467 5.3848C72.8997 5.3848 72.3083 5.16692 71.8725 4.73116C71.4368 4.2954 71.2189 3.73513 71.2189 3.05036C71.2189 2.26184 71.4679 1.60819 71.9659 1.08943C72.4639 0.570662 73.128 0.311279 73.958 0.311279C74.788 0.311279 75.4209 0.539536 75.8567 0.996049C76.2924 1.43181 76.5103 1.9817 76.5103 2.64572C76.5103 3.47575 76.2613 4.13977 75.7633 4.63778C75.2653 5.13579 74.5701 5.3848 73.6778 5.3848H73.6467ZM71.9971 11.1742L69.7871 10.5828V8.49739L75.4831 7.81262H75.5454L76.4169 8.43514V23.4067L78.5024 23.6557V25.5233H69.8182V23.6557L71.9971 23.3756V11.1742Z" fill="#E1E4E2"/>
<path d="M58.1123 33.9272C55.3317 33.9272 53.3189 33.4915 52.0739 32.62C50.8288 31.7484 50.2063 30.5656 50.2063 29.0716C50.2063 28.2208 50.4864 27.4116 51.0467 26.6438C51.6277 25.8968 52.3229 25.3365 53.1321 24.963C52.1776 24.4027 51.7003 23.5104 51.7003 22.2862C51.7003 21.5806 51.9286 20.9166 52.3851 20.2941C52.8416 19.6508 53.433 19.1528 54.1593 18.8001C53.018 18.3643 52.1672 17.7003 51.607 16.808C51.0467 15.9157 50.7666 14.8574 50.7666 13.6332C50.7666 12.4504 51.109 11.4232 51.7937 10.5517C52.4992 9.65942 53.433 8.97465 54.595 8.49739C55.7778 8.02012 57.054 7.78149 58.4235 7.78149C60.8514 7.78149 62.6567 8.24838 63.8394 9.18215C64.1092 8.82939 64.5657 8.49738 65.209 8.18613C65.8522 7.87487 66.5163 7.71924 67.201 7.71924H68.2904V11.112H65.0845C65.3957 11.776 65.5514 12.4815 65.5514 13.2285C65.5721 15.1168 64.9081 16.6316 63.5593 17.7729C62.2105 18.8934 60.3637 19.4537 58.0189 19.4537C57.0436 19.4537 56.224 19.3811 55.56 19.2358C55.3524 19.5056 55.1864 19.7961 55.0619 20.1073C54.9582 20.3979 54.9063 20.6572 54.9063 20.8855C54.9063 21.5703 55.1449 22.0372 55.6222 22.2862C56.1202 22.5352 57.0021 22.6597 58.2679 22.6597H61.5984C65.8315 22.6597 67.9481 24.1952 67.9481 27.2663C67.9481 28.5528 67.4915 29.7045 66.5785 30.7213C65.6655 31.7381 64.4516 32.5266 62.9368 33.0868C61.422 33.6471 59.8138 33.9272 58.1123 33.9272ZM58.3302 17.5239C60.26 17.5239 61.2249 16.2062 61.2249 13.5709C61.2249 12.2221 60.9759 11.2365 60.4778 10.6139C60.0006 9.97068 59.2639 9.64904 58.2679 9.64904C57.2926 9.64904 56.5352 9.97068 55.9957 10.6139C55.477 11.2365 55.2176 12.1806 55.2176 13.4464C55.2176 16.1647 56.2551 17.5239 58.3302 17.5239ZM58.5792 31.7796C59.8865 31.7796 61.0174 31.4579 61.9719 30.8147C62.9264 30.1921 63.4037 29.3206 63.4037 28.2001C63.4037 27.3078 63.165 26.6645 62.6878 26.2703C62.2313 25.876 61.4012 25.6789 60.1977 25.6789H56.805C56.2862 25.6789 55.809 25.6478 55.3732 25.5855C54.8129 26.3325 54.5328 27.2248 54.5328 28.2623C54.5328 29.4036 54.8441 30.2751 55.4666 30.8769C56.0891 31.4787 57.1266 31.7796 58.5792 31.7796Z" fill="#E1E4E2"/>
<path d="M32.6082 20.6676C32.6082 18.7793 33.5523 17.3579 35.4406 16.4034C37.3497 15.4488 39.8086 14.9612 42.8174 14.9405V14.2246C42.8174 13.3738 42.7241 12.7098 42.5373 12.2325C42.3713 11.7552 42.0497 11.4025 41.5724 11.1742C41.1159 10.9252 40.4415 10.8007 39.5492 10.8007C38.5324 10.8007 37.6194 10.9356 36.8102 11.2053C36.0009 11.4544 35.1605 11.7864 34.289 12.2014L33.324 10.2093C33.6353 9.93956 34.1541 9.61793 34.8803 9.24442C35.6274 8.87091 36.5093 8.54927 37.526 8.27951C38.5428 7.98901 39.5907 7.84375 40.6698 7.84375C42.2676 7.84375 43.5126 8.05126 44.4049 8.46627C45.3179 8.88128 45.9715 9.5453 46.3658 10.4583C46.7601 11.3714 46.9572 12.5956 46.9572 14.1312V23.6557H48.638V25.3988C48.223 25.5025 47.6316 25.6063 46.8638 25.71C46.096 25.8138 45.4216 25.8656 44.8406 25.8656C44.1351 25.8656 43.6578 25.7619 43.4088 25.5544C43.1806 25.3469 43.0665 24.9215 43.0665 24.2782V23.4378C42.5062 24.0603 41.7799 24.6206 40.8876 25.1186C39.9954 25.6166 38.989 25.8656 37.8684 25.8656C36.9139 25.8656 36.032 25.6685 35.2227 25.2743C34.4342 24.8592 33.8013 24.2678 33.324 23.5001C32.8468 22.7116 32.6082 21.7674 32.6082 20.6676ZM39.8605 23.2822C40.2962 23.2822 40.7943 23.1577 41.3545 22.9087C41.9148 22.6389 42.4024 22.3173 42.8174 21.9438V16.8391C40.9499 16.8391 39.5492 17.1608 38.6155 17.804C37.7024 18.4266 37.2459 19.2358 37.2459 20.2319C37.2459 21.2279 37.4742 21.9853 37.9307 22.504C38.4079 23.0228 39.0512 23.2822 39.8605 23.2822Z" fill="#E1E4E2"/>
<path d="M4.88677 4.73117L1.52517 4.32653V2.39673H11.2364L14.9404 15.7809L15.812 19.4226L16.559 15.7809L20.2318 2.39673H29.8497V4.32653L26.457 4.73117L28.9471 23.3133L31.4683 23.6557V25.5233H21.5391V23.6557L24.2782 23.3445L22.9087 9.71132L22.3173 4.01528L21.1656 8.80866L16.6524 24.5584H13.353L8.74638 9.61794L7.15896 4.01528L6.69207 9.71132L5.50928 23.3445L8.653 23.6557V25.5233H0V23.6557L2.61458 23.3445L4.88677 4.73117Z" fill="#E1E4E2"/>
</svg>
