<svg width="43" height="43" viewBox="0 0 43 43" fill="none" xmlns="http://www.w3.org/2000/svg">
<path d="M16.6259 24.6127L15.0637 24.417V23.4839H19.5767L21.298 29.9558L21.703 31.7167L22.0501 29.9558L23.7569 23.4839H28.2265V24.417L26.6498 24.6127L27.807 33.5981L28.9786 33.7636V34.6667H24.3644V33.7636L25.6373 33.6131L25.0009 27.0208L24.7261 24.2665L24.1909 26.5844L22.0935 34.2001H20.5603L18.4195 26.9757L17.6818 24.2665L17.4649 27.0208L16.9152 33.6131L18.3761 33.7636V34.6667H14.355V33.7636L15.57 33.6131L16.6259 24.6127Z" fill="#E1E4E2"/>
<path d="M16.6259 18.054L15.0637 18.2497V19.1829H19.5767L21.298 12.711L21.703 10.95L22.0501 12.711L23.7569 19.1829H28.2265V18.2497L26.6498 18.054L27.807 9.06868L28.9786 8.90312V8.00006H24.3644V8.90312L25.6373 9.05363L25.0009 15.6459L24.7261 18.4002L24.1909 16.0824L22.0935 8.46664H20.5603L18.4195 15.6911L17.6818 18.4002L17.4649 15.6459L16.9152 9.05363L18.3761 8.90312V8.00006H14.355V8.90312L15.57 9.05363L16.6259 18.054Z" fill="#E1E4E2"/>
<path d="M24.9462 26.3743L24.7505 27.9365L23.8174 27.9365L23.8174 23.4236L30.2893 21.7023L32.0502 21.2973L30.2893 20.9501L23.8174 19.2433L23.8174 14.7738L24.7505 14.7738L24.9462 16.3504L33.9316 15.1932L34.0971 14.0216L35.0002 14.0216L35.0002 18.6358L34.0971 18.6358L33.9466 17.3629L27.3543 17.9994L24.6 18.2742L26.9179 18.8094L34.5336 20.9067L34.5336 22.44L27.3092 24.5807L24.6 25.3184L27.3543 25.5354L33.9466 26.085L34.0971 24.6241L35.0002 24.6241L35.0002 28.6453L34.0971 28.6453L33.9466 27.4302L24.9462 26.3743Z" fill="#E1E4E2"/>
<path d="M18.3873 26.3743L18.583 27.9365L19.5161 27.9365L19.5161 23.4236L13.0442 21.7023L11.2833 21.2973L13.0442 20.9501L19.5161 19.2433L19.5161 14.7738L18.583 14.7738L18.3873 16.3504L9.40193 15.1932L9.23637 14.0216L8.33332 14.0216L8.33332 18.6358L9.23637 18.6358L9.38688 17.3629L15.9792 17.9994L18.7335 18.2742L16.4156 18.8094L8.79989 20.9067L8.79989 22.44L16.0243 24.5807L18.7335 25.3184L15.9792 25.5354L9.38688 26.085L9.23637 24.6241L8.33332 24.6241L8.33332 28.6453L9.23637 28.6453L9.38688 27.4302L18.3873 26.3743Z" fill="#E1E4E2"/>
</svg>
