<svg width="24" height="24" viewBox="0 0 24 24" fill="none" xmlns="http://www.w3.org/2000/svg">
<path d="M17.9865 9.99955C17.9865 9.73434 17.8811 9.48 17.6936 9.29247C17.506 9.10494 17.2517 8.99958 16.9865 8.99958H5.39647L7.69647 6.70965C7.88477 6.52135 7.99056 6.26596 7.99056 5.99967C7.99056 5.73337 7.88477 5.47799 7.69647 5.28969C7.50816 5.10139 7.25277 4.99561 6.98647 4.99561C6.72017 4.99561 6.46477 5.10139 6.27647 5.28969L2.27647 9.28957C2.13771 9.43019 2.04371 9.60876 2.00634 9.80274C1.96897 9.99673 1.98989 10.1974 2.06647 10.3795C2.14149 10.5622 2.26889 10.7185 2.43261 10.8288C2.59633 10.9391 2.78904 10.9985 2.98647 10.9995H16.9865C17.2517 10.9995 17.506 10.8942 17.6936 10.7066C17.8811 10.5191 17.9865 10.2648 17.9865 9.99955ZM21.9065 13.6194C21.8314 13.4368 21.7041 13.2805 21.5403 13.1702C21.3766 13.0599 21.1839 13.0005 20.9865 12.9995H6.98647C6.72125 12.9995 6.4669 13.1048 6.27936 13.2924C6.09183 13.4799 5.98647 13.7342 5.98647 13.9994C5.98647 14.2646 6.09183 14.519 6.27936 14.7065C6.4669 14.8941 6.72125 14.9994 6.98647 14.9994H18.5765L16.2765 17.2893C16.1827 17.3823 16.1083 17.4929 16.0576 17.6148C16.0068 17.7366 15.9807 17.8673 15.9807 17.9993C15.9807 18.1313 16.0068 18.262 16.0576 18.3839C16.1083 18.5057 16.1827 18.6163 16.2765 18.7093C16.3694 18.803 16.48 18.8774 16.6019 18.9282C16.7238 18.979 16.8545 19.0051 16.9865 19.0051C17.1185 19.0051 17.2492 18.979 17.371 18.9282C17.4929 18.8774 17.6035 18.803 17.6965 18.7093L21.6965 14.7094C21.8352 14.5688 21.9292 14.3902 21.9666 14.1962C22.004 14.0023 21.983 13.8016 21.9065 13.6194Z" fill="white"/>
</svg>
