<?xml version="1.0" standalone="no"?>
<!DOCTYPE svg PUBLIC "-//W3C//DTD SVG 20010904//EN"
 "http://www.w3.org/TR/2001/REC-SVG-20010904/DTD/svg10.dtd">
<svg version="1.0" xmlns="http://www.w3.org/2000/svg"
 width="700.000000pt" height="700.000000pt" viewBox="0 0 700.000000 700.000000"
 preserveAspectRatio="xMidYMid meet">
<metadata>
Created by potrace 1.14, written by Peter Selinger 2001-2017
</metadata>
<g transform="translate(0.000000,700.000000) scale(0.100000,-0.100000)"
fill="#000000" stroke="none">
<path d="M2339 5681 c-4 -66 -3 -114 2 -123 6 -10 16 -11 124 -23 63 -7 74
-15 76 -55 0 -14 2 -32 4 -40 1 -8 6 -46 9 -83 4 -37 9 -76 11 -85 2 -10 6
-48 9 -84 4 -37 8 -75 10 -85 2 -10 7 -52 11 -93 4 -41 9 -83 10 -92 2 -9 6
-43 10 -75 3 -32 13 -114 21 -183 8 -69 17 -145 20 -170 2 -25 7 -60 10 -78 5
-31 4 -32 -23 -28 -15 3 -48 8 -73 10 -70 8 -143 17 -170 21 -14 2 -135 18
-270 35 -135 17 -258 33 -275 35 -16 2 -52 7 -80 10 -27 4 -63 8 -80 11 -16 2
-50 6 -75 9 -71 9 -79 11 -85 17 -3 3 -11 45 -18 94 l-13 89 -72 1 c-40 0 -72
-2 -73 -5 -7 -40 -2 -734 6 -739 5 -3 37 -6 72 -6 71 -1 67 -6 79 104 4 36 8
72 9 80 2 12 16 15 61 14 73 -2 224 -14 244 -19 8 -3 51 -7 95 -10 44 -3 96
-8 115 -10 19 -2 62 -7 95 -10 33 -3 78 -8 100 -10 22 -3 74 -7 115 -11 41 -4
84 -8 95 -9 19 -2 203 -18 217 -19 18 -2 14 -12 -5 -13 -23 0 -90 -8 -164 -19
l-42 -6 -3 -77 -3 -76 -155 -43 c-85 -23 -186 -51 -225 -61 -252 -68 -593
-163 -611 -171 -21 -8 -22 -15 -20 -131 l1 -123 115 -34 c63 -18 158 -46 210
-62 130 -39 452 -134 583 -172 60 -17 107 -36 107 -43 0 -7 22 -14 56 -18 30
-3 87 -14 125 -24 l71 -18 -6 -59 c-3 -32 -7 -60 -8 -62 -4 -4 -91 -13 -174
-19 -38 -2 -92 -7 -119 -9 -28 -3 -84 -8 -125 -11 -105 -7 -199 -15 -240 -20
-19 -2 -73 -7 -120 -11 -88 -6 -94 -7 -245 -19 -49 -3 -100 -8 -112 -10 -13
-2 -23 -1 -24 3 0 4 -2 16 -4 26 -4 19 -17 168 -18 194 0 10 -19 12 -76 10
l-75 -3 0 -318 c-1 -181 3 -321 8 -325 5 -3 38 -6 73 -6 72 -1 65 -11 82 113
5 41 13 77 18 81 4 5 42 11 83 15 41 4 82 9 91 10 9 2 40 6 70 9 30 4 77 9
104 12 28 3 61 7 75 9 27 4 73 9 255 30 33 4 71 8 85 10 14 2 54 6 90 10 36 4
76 8 90 10 74 11 109 15 146 19 l42 4 -4 -42 c-2 -22 -6 -54 -8 -71 -3 -16 -7
-50 -10 -75 -3 -25 -8 -65 -11 -90 -5 -44 -40 -352 -51 -440 -3 -25 -7 -61 -9
-80 -5 -47 -15 -127 -20 -170 -3 -19 -8 -65 -11 -102 -8 -75 -3 -72 -136 -85
l-68 -6 -1 -36 c-1 -40 -1 -103 0 -111 1 -3 146 -5 323 -5 l323 1 3 75 c2 57
0 76 -10 76 -27 1 -164 14 -183 18 -11 2 -25 4 -32 4 -6 1 -10 9 -9 19 2 9 7
60 10 112 4 52 9 106 11 120 2 14 7 66 10 115 3 50 8 110 10 135 2 25 6 70 9
100 3 30 8 91 11 135 3 44 8 96 10 115 2 19 7 73 10 120 7 105 16 184 19 188
2 1 30 5 62 8 l59 6 18 -69 c9 -37 20 -90 23 -118 4 -27 12 -54 19 -60 6 -5
49 -136 95 -290 45 -154 113 -381 149 -505 l67 -225 126 -1 125 -1 62 226 c34
124 97 353 139 508 l77 283 78 0 c66 0 77 2 78 18 0 9 2 26 4 37 4 22 17 123
18 143 0 6 4 12 8 12 4 0 7 -8 7 -17 -1 -23 11 -152 27 -298 2 -22 7 -71 11
-110 11 -123 22 -248 29 -310 2 -22 7 -74 10 -115 4 -41 8 -86 10 -99 3 -13 7
-59 11 -102 7 -89 12 -84 -101 -94 -105 -9 -101 -6 -99 -77 1 -35 3 -67 3 -73
1 -7 130 -9 368 -8 203 0 371 1 374 2 4 1 6 34 5 74 l-1 72 -50 7 c-27 3 -68
9 -89 12 -43 5 -55 18 -57 56 -2 25 -2 31 -12 105 -3 22 -17 132 -31 245 -15
113 -28 219 -30 235 -3 17 -8 57 -12 90 -4 33 -9 62 -9 65 -1 3 -5 37 -9 75
-5 39 -10 78 -12 89 -2 10 -6 44 -9 75 -4 31 -8 68 -11 83 -4 25 -2 27 28 23
18 -2 60 -6 93 -10 33 -3 72 -8 86 -10 14 -3 52 -7 85 -10 32 -3 70 -8 84 -10
14 -2 52 -7 85 -10 33 -3 71 -8 85 -10 14 -2 54 -7 90 -10 36 -4 73 -9 82 -10
9 -2 48 -7 85 -10 37 -4 75 -8 83 -10 8 -2 44 -7 80 -10 57 -5 117 -13 157
-19 20 -3 21 -8 27 -70 7 -69 15 -119 21 -124 2 -3 35 -5 74 -6 l69 -1 0 328
0 327 -74 0 c-63 0 -74 -3 -75 -17 -1 -10 -3 -27 -4 -38 -1 -11 -6 -54 -10
-95 -8 -88 -9 -90 -36 -85 -11 2 -60 7 -107 10 -48 4 -100 8 -117 10 -16 2
-68 6 -115 10 -47 3 -105 8 -130 10 -25 3 -76 7 -115 10 -38 3 -95 7 -125 10
-30 3 -80 8 -110 10 -30 2 -84 7 -120 10 -36 3 -94 7 -130 10 -35 3 -67 9 -71
13 -4 4 -9 31 -12 59 l-5 53 41 10 c23 6 56 15 72 21 17 5 53 12 80 15 28 3
55 11 60 18 6 6 204 69 442 139 237 71 467 139 510 152 l78 24 -2 122 c-1 66
-3 123 -5 124 -4 4 -838 236 -943 262 -33 9 -65 19 -71 24 -5 4 -10 39 -9 78
l1 69 -50 8 c-71 10 -81 11 -123 13 -37 1 -41 9 -7 15 20 4 95 12 204 21 36 4
81 8 100 10 33 4 81 8 205 20 103 9 171 16 210 20 22 2 72 7 110 10 39 4 80 8
92 10 12 2 60 6 107 10 85 7 86 7 87 -17 1 -26 8 -93 14 -123 2 -11 4 -29 4
-40 1 -18 8 -20 73 -20 l73 1 0 374 0 375 -72 1 c-65 2 -73 0 -74 -17 -1 -10
-2 -22 -4 -26 -1 -5 -5 -36 -10 -71 -9 -72 -15 -77 -95 -87 -30 -3 -66 -8 -80
-10 -14 -2 -50 -7 -80 -10 -30 -3 -66 -8 -80 -10 -14 -2 -47 -7 -75 -10 -27
-3 -61 -7 -75 -10 -14 -2 -50 -6 -80 -10 -30 -4 -66 -8 -80 -10 -14 -2 -49 -7
-79 -10 -30 -4 -61 -8 -70 -10 -9 -1 -43 -6 -76 -9 -33 -4 -71 -9 -85 -11 -14
-2 -47 -6 -75 -9 -27 -4 -67 -9 -88 -12 l-39 -6 6 33 c3 19 8 59 11 89 3 30 8
66 10 80 2 14 9 63 15 110 17 140 55 435 65 510 3 19 7 55 10 80 3 25 7 54 9
65 2 11 7 49 11 85 9 90 11 95 41 98 15 1 54 6 88 12 33 5 64 10 67 10 4 0 6
32 6 70 0 63 -2 71 -21 75 -12 2 -181 3 -376 2 l-354 -2 -1 -63 c0 -35 2 -68
5 -73 3 -4 30 -11 60 -15 30 -4 62 -8 70 -10 8 -1 28 -3 44 -3 l29 -1 -7 -77
c-3 -43 -8 -91 -10 -108 -2 -16 -7 -66 -11 -110 -3 -44 -8 -93 -10 -110 -2
-16 -7 -61 -10 -100 -12 -132 -15 -160 -19 -200 -3 -22 -8 -71 -11 -110 -3
-38 -8 -81 -10 -95 -4 -23 -18 -187 -18 -217 -1 -29 -17 -10 -18 20 0 39 -6
79 -17 132 l-8 39 -66 1 c-37 0 -71 5 -76 10 -5 6 -14 28 -19 50 -17 65 -163
596 -177 645 -8 25 -31 107 -51 183 -21 75 -43 137 -49 138 -34 2 -239 0 -240
-3 -2 -2 -36 -115 -76 -253 -40 -137 -92 -315 -116 -395 -24 -80 -57 -194 -75
-255 -17 -60 -37 -114 -43 -120 -6 -5 -17 -41 -24 -80 -20 -116 -40 -174 -60
-170 -9 2 -30 4 -47 4 -47 2 -55 12 -60 87 -3 38 -7 89 -10 114 -2 25 -7 79
-10 120 -3 41 -8 95 -10 120 -2 25 -7 79 -10 120 -4 41 -8 95 -10 120 -2 25
-6 81 -10 125 -3 44 -8 96 -10 115 -2 19 -7 76 -10 125 -4 50 -9 98 -10 107
-5 23 -2 25 85 33 41 4 86 9 100 10 14 2 31 3 38 4 8 1 12 23 12 75 l0 75
-325 -1 c-289 -1 -325 -3 -326 -17z m1204 -516 c3 -22 11 -62 17 -90 7 -27 14
-63 16 -80 5 -27 114 -451 150 -580 7 -27 30 -113 50 -190 66 -254 91 -346 97
-352 7 -6 82 -27 372 -103 105 -27 217 -56 250 -65 33 -9 119 -31 190 -50 72
-19 146 -39 165 -45 39 -11 252 -56 315 -66 22 -3 41 -7 43 -9 2 -1 -50 -15
-115 -30 -65 -15 -185 -45 -268 -67 -82 -22 -154 -41 -160 -42 -5 -2 -28 -8
-50 -14 -22 -6 -195 -52 -385 -102 -190 -50 -350 -97 -356 -103 -6 -7 -21 -50
-33 -97 -11 -47 -44 -170 -71 -275 -28 -104 -62 -230 -75 -280 -13 -49 -38
-144 -55 -210 -18 -66 -34 -131 -37 -144 -2 -14 -6 -28 -9 -33 -3 -5 -7 -21
-10 -36 -4 -22 -21 -110 -29 -147 -1 -5 -5 -32 -10 -59 -10 -62 -17 -49 -45
84 -12 58 -60 247 -106 420 -46 173 -102 385 -125 470 -23 85 -52 192 -65 236
l-24 82 -72 17 c-40 10 -91 23 -113 30 -22 7 -94 27 -160 44 -66 17 -196 52
-290 77 -359 96 -481 127 -669 169 -33 8 -29 13 16 20 78 13 92 16 188 36 52
12 185 45 295 74 110 29 254 68 320 85 66 17 127 33 135 35 8 2 87 23 175 46
88 23 165 47 172 53 12 11 251 896 318 1179 20 87 38 157 40 155 2 -2 5 -21 8
-43z m-622 -2273 c6 -16 4 -22 -6 -23 -8 -1 -22 -2 -30 -3 -8 0 -15 2 -15 7 0
4 0 18 0 32 0 21 3 23 22 16 12 -4 25 -17 29 -29z"/>
</g>
</svg>
