<svg xmlns="http://www.w3.org/2000/svg" width="2048" height="2045" viewBox="0 0 2048 2045" version="1.1"><path d="M 980 1.057 C 980 1.372, 976.288 1.611, 971.750 1.587 C 962.121 1.536, 944.818 2.556, 940.500 3.429 C 938.850 3.763, 934.574 4.157, 930.999 4.305 C 927.423 4.453, 923.919 4.932, 923.212 5.369 C 922.505 5.806, 920.189 5.870, 918.066 5.511 C 915.943 5.152, 913.958 5.259, 913.656 5.747 C 913.354 6.236, 911.226 6.545, 908.928 6.433 C 906.629 6.322, 903.343 6.616, 901.624 7.086 C 899.906 7.557, 896.025 8.182, 893 8.474 C 889.975 8.766, 885.593 9.393, 883.262 9.866 C 880.931 10.340, 877.893 10.511, 876.512 10.247 C 875.130 9.983, 874 10.191, 874 10.708 C 874 11.226, 872.538 11.664, 870.750 11.682 C 866.613 11.723, 860.993 12.565, 858.798 13.473 C 857.862 13.860, 856.655 13.905, 856.117 13.572 C 855.579 13.240, 854.874 13.394, 854.552 13.916 C 854.229 14.438, 852.736 14.900, 851.233 14.943 C 845.665 15.103, 844.375 15.267, 838.730 16.535 C 835.557 17.248, 832.745 17.870, 832.480 17.916 C 832.216 17.962, 831.888 18.034, 831.750 18.077 C 831.612 18.119, 830.825 18.302, 830 18.483 C 829.175 18.665, 826.250 19.359, 823.500 20.026 C 820.750 20.693, 817.375 21.372, 816 21.535 C 814.625 21.697, 812.375 22.098, 811 22.426 C 809.625 22.753, 807.375 23.234, 806 23.494 C 804.625 23.755, 802.150 24.356, 800.500 24.830 C 798.850 25.304, 796.938 25.499, 796.250 25.263 C 795.563 25.027, 795 25.373, 795 26.033 C 795 26.777, 794.164 27.015, 792.802 26.658 C 791.593 26.342, 790.131 26.430, 789.552 26.854 C 788.358 27.728, 780.004 29.852, 775.500 30.427 C 773.850 30.637, 769.800 31.748, 766.500 32.896 C 763.200 34.043, 759.263 35.084, 757.750 35.209 C 756.237 35.334, 754.998 35.676, 754.996 35.968 C 754.993 36.261, 753.531 36.576, 751.746 36.669 C 749.960 36.762, 746.406 37.740, 743.847 38.842 C 741.288 39.944, 737.497 41.116, 735.423 41.445 C 733.348 41.775, 731.122 42.484, 730.475 43.021 C 729.828 43.558, 727.206 44.284, 724.649 44.635 C 722.092 44.985, 720 45.647, 720 46.105 C 720 46.563, 719.325 46.678, 718.500 46.362 C 717.674 46.045, 717 46.332, 717 47 C 717 47.668, 716.339 47.960, 715.532 47.651 C 714.725 47.341, 713.834 47.460, 713.553 47.915 C 712.979 48.842, 707.176 50.363, 705.250 50.090 C 704.563 49.992, 704 50.457, 704 51.123 C 704 51.789, 703.726 52.059, 703.391 51.724 C 703.056 51.389, 700.468 52.047, 697.641 53.186 C 694.813 54.325, 691.938 55.274, 691.250 55.295 C 690.563 55.316, 690 55.735, 690 56.226 C 690 56.716, 689.630 56.890, 689.178 56.610 C 688.726 56.331, 687.039 56.786, 685.428 57.622 C 683.818 58.457, 682.275 59.150, 682 59.161 C 681.725 59.173, 679.983 59.816, 678.128 60.591 C 676.273 61.366, 674.113 62, 673.328 62 C 672.543 62, 670.608 62.668, 669.028 63.485 C 667.448 64.302, 663.983 65.675, 661.328 66.536 C 658.673 67.397, 655.581 68.554, 654.457 69.108 C 653.334 69.663, 651.759 70.247, 650.957 70.407 C 648.871 70.823, 646.212 71.882, 640.400 74.608 C 637.596 75.923, 634.740 77, 634.055 77 C 633.369 77, 631.614 77.620, 630.154 78.378 C 626.555 80.247, 622.955 81.747, 620.250 82.505 C 619.013 82.851, 618 83.554, 618 84.067 C 618 84.580, 617.281 85, 616.403 85 C 615.524 85, 609.219 87.724, 602.392 91.053 C 595.565 94.382, 589.534 96.830, 588.990 96.494 C 588.445 96.157, 588 96.275, 588 96.756 C 588 97.236, 586.313 98.434, 584.250 99.418 C 582.188 100.401, 580.500 101.105, 580.500 100.982 C 580.500 100.858, 578.118 102.162, 575.206 103.879 C 572.294 105.595, 569.478 107, 568.946 107 C 568.415 107, 564.048 109.127, 559.240 111.726 C 554.433 114.325, 550.500 116.295, 550.500 116.104 C 550.500 115.913, 548.118 117.162, 545.206 118.879 C 542.294 120.595, 539.257 122, 538.456 122 C 537.655 122, 537 122.355, 537 122.789 C 537 123.223, 534.413 124.890, 531.250 126.493 C 528.087 128.096, 524.712 130.061, 523.750 130.859 C 522.788 131.657, 522 132.021, 522 131.667 C 522 131.314, 519.579 132.573, 516.620 134.466 C 513.662 136.359, 510.962 137.628, 510.620 137.287 C 510.279 136.946, 510 137.161, 510 137.766 C 510 138.371, 508.988 139.172, 507.750 139.548 C 506.512 139.923, 504.487 141.157, 503.250 142.289 C 502.012 143.422, 500.993 143.933, 500.985 143.424 C 500.976 142.916, 500.639 142.954, 500.235 143.509 C 499.411 144.640, 487.556 152, 486.557 152 C 486.205 152, 484.967 152.884, 483.807 153.965 C 482.646 155.046, 481.362 155.724, 480.953 155.471 C 480.544 155.218, 479.952 155.684, 479.636 156.506 C 479.321 157.328, 478.374 158, 477.531 158 C 476.689 158, 476 158.401, 476 158.892 C 476 159.382, 474.887 160.062, 473.528 160.404 C 472.168 160.745, 470.117 162.031, 468.970 163.262 C 467.824 164.493, 466.574 165.530, 466.193 165.566 C 464.807 165.697, 459.012 169.522, 459.006 170.309 C 459.003 170.754, 458.550 170.840, 458 170.500 C 457.450 170.160, 457 170.385, 457 171 C 457 171.615, 456.607 171.875, 456.126 171.578 C 455.645 171.281, 454.413 172.154, 453.389 173.519 C 452.364 174.883, 451.070 176.013, 450.513 176.028 C 449.956 176.043, 447.732 177.393, 445.572 179.028 C 443.411 180.663, 441.097 182, 440.429 182 C 439.761 182, 438.955 182.675, 438.638 183.500 C 438.322 184.325, 437.411 185, 436.615 185 C 435.818 185, 435.017 185.337, 434.833 185.750 C 434.272 187.012, 426.551 192.510, 425.722 192.237 C 425.294 192.097, 424.686 192.654, 424.371 193.475 C 424.056 194.297, 421.368 196.359, 418.399 198.058 C 415.430 199.757, 413 201.474, 413 201.874 C 413 202.274, 410.868 203.928, 408.262 205.551 C 405.656 207.173, 402.371 209.625, 400.961 211 C 399.551 212.375, 396.845 214.597, 394.949 215.938 C 393.052 217.278, 390.912 219.191, 390.193 220.188 C 389.475 221.184, 388.462 222, 387.943 222 C 387.424 222, 386.169 222.788, 385.152 223.750 C 384.136 224.713, 382.027 226.400, 380.466 227.500 C 378.905 228.600, 376.024 230.960, 374.064 232.745 C 372.104 234.530, 370.198 235.993, 369.829 235.995 C 369.460 235.998, 367.433 237.688, 365.325 239.750 C 363.216 241.813, 359.542 245.075, 357.160 247 C 352.246 250.971, 350.315 252.674, 340.500 261.689 C 336.650 265.225, 331.475 269.934, 329 272.154 C 318.724 281.370, 281.509 318.702, 268.792 332.551 C 267.303 334.173, 265.640 335.950, 265.097 336.500 C 264.212 337.397, 259.466 342.695, 252.857 350.164 C 251.561 351.630, 248.925 354.778, 247 357.160 C 245.075 359.542, 241.813 363.216, 239.750 365.325 C 237.688 367.433, 236 369.498, 236 369.914 C 236 370.329, 234.762 371.829, 233.250 373.246 C 231.737 374.662, 229.375 377.482, 228 379.512 C 226.625 381.541, 224.713 384.057, 223.750 385.101 C 222.788 386.145, 222 387.297, 222 387.661 C 222 388.024, 220.569 389.599, 218.820 391.161 C 217.071 392.722, 216.012 394, 216.466 394 C 216.920 394, 216.101 395.104, 214.646 396.452 C 213.191 397.801, 212 399.376, 212 399.952 C 212 400.529, 211.589 401, 211.086 401 C 210.583 401, 208.841 403.137, 207.214 405.750 C 205.587 408.363, 203.259 411.625, 202.040 413 C 200.821 414.375, 199.091 416.738, 198.196 418.250 C 197.301 419.763, 196.216 421, 195.784 421 C 195.353 421, 195 421.627, 195 422.393 C 195 423.159, 194.296 424.056, 193.437 424.386 C 192.577 424.716, 192.153 425.439, 192.496 425.993 C 192.838 426.547, 192.748 427, 192.295 427 C 191.842 427, 190.360 428.800, 189 431 C 187.640 433.200, 186.184 435, 185.764 435 C 185.344 435, 185 435.427, 185 435.948 C 185 436.470, 183.871 438.116, 182.490 439.605 C 181.110 441.095, 180.188 442.522, 180.442 442.776 C 180.697 443.030, 180.364 443.844, 179.702 444.584 C 176.675 447.974, 176 449.005, 176 450.237 C 176 450.964, 175.100 452.207, 174 453 C 172.900 453.793, 172 454.948, 172 455.568 C 172 456.560, 170.994 458.001, 166.997 462.730 C 166.426 463.407, 165.967 464.195, 165.979 464.480 C 166.067 466.648, 165.876 467.041, 165 466.500 C 164.450 466.160, 164 466.584, 164 467.441 C 164 468.298, 163.594 469, 163.098 469 C 162.602 469, 161.720 470.363, 161.139 472.030 C 160.559 473.696, 159.502 475.706, 158.792 476.495 C 155.884 479.726, 154.959 480.999, 154.987 481.730 C 155.003 482.154, 154.338 483.293, 153.508 484.261 C 152.679 485.230, 152 486.210, 152 486.440 C 152 487.315, 144.494 499.516, 143.760 499.835 C 143.335 500.020, 143.242 500.582, 143.553 501.085 C 143.864 501.588, 143.674 502, 143.131 502 C 142.589 502, 141.351 503.800, 140.380 506 C 139.409 508.200, 138.225 510, 137.749 510 C 137.272 510, 137.160 510.450, 137.500 511 C 137.840 511.550, 137.566 512, 136.892 512 C 136.218 512, 135.949 512.282, 136.294 512.627 C 136.639 512.972, 135.567 515.222, 133.912 517.627 C 132.258 520.032, 131.220 522, 131.607 522 C 131.994 522, 131.512 522.882, 130.536 523.960 C 129.560 525.038, 127.664 528.291, 126.321 531.188 C 124.979 534.085, 123.570 536.691, 123.190 536.978 C 122.488 537.509, 116.522 549.069, 116.473 549.993 C 116.459 550.272, 114.321 554.371, 111.723 559.101 C 109.125 563.832, 107 568.229, 107 568.871 C 107 569.514, 105.825 571.901, 104.389 574.177 C 102.952 576.452, 101.702 578.824, 101.611 579.448 C 101.519 580.072, 100.370 582.364, 99.057 584.541 C 97.743 586.719, 96.591 589.329, 96.495 590.342 C 96.399 591.355, 95.911 592.480, 95.410 592.842 C 94.910 593.204, 94.353 594.175, 94.174 595 C 93.858 596.451, 91.108 602.543, 84.729 615.921 C 83.045 619.453, 81.667 622.940, 81.667 623.671 C 81.667 624.402, 81.292 625, 80.833 625 C 80.375 625, 80 625.868, 80 626.929 C 80 627.989, 79.343 629.514, 78.540 630.317 C 77.737 631.121, 76.848 633.065, 76.564 634.639 C 76.118 637.117, 74.043 642.090, 70.891 648.236 C 70.401 649.191, 70 650.879, 70 651.986 C 70 653.094, 69.550 654, 69 654 C 68.450 654, 68.074 654.337, 68.164 654.750 C 68.365 655.671, 66.940 661.129, 66.140 662.500 C 65.819 663.050, 65.461 664.130, 65.345 664.900 C 65.228 665.670, 64.541 666.675, 63.816 667.135 C 63.092 667.594, 62.893 667.976, 63.372 667.985 C 63.852 667.993, 63.704 668.651, 63.043 669.448 C 62.383 670.244, 61.627 672.381, 61.364 674.198 C 61.102 676.014, 59.757 679.857, 58.376 682.737 C 56.995 685.617, 56.148 688.430, 56.492 688.987 C 56.836 689.544, 56.641 690, 56.059 690 C 55.477 690, 54.996 691.013, 54.991 692.250 C 54.986 693.487, 53.875 696.750, 52.522 699.500 C 51.169 702.250, 50.048 705.648, 50.031 707.050 C 50.014 708.452, 49.563 710.037, 49.029 710.571 C 48.494 711.106, 47.919 712.433, 47.750 713.521 C 47.581 714.610, 47.121 716.014, 46.729 716.642 C 46.336 717.270, 45.807 719.409, 45.553 721.395 C 45.299 723.382, 44.410 726.468, 43.579 728.253 C 42.748 730.039, 41.817 733.075, 41.511 735 C 41 738.213, 40.085 741.221, 38.013 746.500 C 36.683 749.887, 34.956 756.348, 34.537 759.500 C 34.318 761.150, 33.426 764.438, 32.555 766.806 C 31.684 769.174, 30.727 772.774, 30.427 774.806 C 30.128 776.838, 29.600 779.400, 29.253 780.500 C 28.530 782.793, 28.311 783.630, 27.615 786.754 C 27.339 787.993, 26.875 789.393, 26.583 789.865 C 26.292 790.337, 25.842 792.247, 25.583 794.111 C 24.226 803.882, 23.699 806.545, 23.034 807 C 22.632 807.275, 22.385 808.513, 22.484 809.750 C 22.584 810.988, 22.294 812, 21.840 812 C 21.386 812, 21.082 813.728, 21.165 815.840 C 21.248 817.953, 20.964 820.250, 20.534 820.946 C 20.104 821.641, 19.555 823.851, 19.314 825.855 C 19.074 827.860, 18.185 831.665, 17.338 834.311 C 16.491 836.957, 16.027 839.995, 16.306 841.061 C 16.585 842.127, 16.479 843, 16.070 843 C 15.662 843, 15.256 844.688, 15.168 846.750 C 15.080 848.813, 14.777 851.625, 14.494 853 C 14.211 854.375, 13.764 856.625, 13.500 858 C 13.236 859.375, 12.797 861.625, 12.524 863 C 10.726 872.062, 10.068 876.203, 9.587 881.500 C 9.287 884.800, 8.816 888.645, 8.539 890.044 C 7.892 893.313, 7.047 900.152, 6.506 906.500 C 6.271 909.250, 6.003 911.500, 5.910 911.500 C 5.816 911.500, 5.610 914.200, 5.452 917.500 C 5.294 920.800, 4.893 925.300, 4.562 927.500 C 4.230 929.700, 3.750 934.425, 3.494 938 C 3.238 941.575, 2.745 947.200, 2.397 950.500 C 2.050 953.800, 1.661 960.596, 1.533 965.602 C 1.406 970.608, 1.053 975.108, 0.750 975.602 C 0.117 976.632, 0.097 1067.100, 0.729 1068.272 C 0.958 1068.697, 1.320 1074.097, 1.534 1080.272 C 1.748 1086.447, 2.369 1095.550, 2.915 1100.500 C 4.950 1118.971, 5.372 1123.582, 5.318 1126.750 C 5.287 1128.537, 5.765 1130.007, 6.381 1130.015 C 6.996 1130.024, 6.825 1130.467, 6 1131 C 5.175 1131.533, 4.962 1131.976, 5.526 1131.985 C 6.091 1131.993, 6.555 1133.912, 6.557 1136.250 C 6.560 1138.588, 6.878 1142.300, 7.265 1144.500 C 7.651 1146.700, 8.201 1150.458, 8.487 1152.851 C 8.773 1155.243, 9.263 1158.618, 9.577 1160.351 C 10.114 1163.316, 10.956 1170.678, 11.139 1174 C 11.184 1174.825, 11.661 1177.525, 12.199 1180 C 12.737 1182.475, 13.363 1185.625, 13.591 1187 C 13.819 1188.375, 14.242 1190.625, 14.532 1192 C 14.821 1193.375, 15.120 1195.963, 15.196 1197.750 C 15.271 1199.537, 15.596 1201, 15.917 1201 C 16.238 1201, 16.581 1202.463, 16.679 1204.250 C 16.777 1206.037, 17.114 1208.625, 17.426 1210 C 18.231 1213.542, 18.846 1216.855, 19.604 1221.750 C 19.967 1224.088, 20.581 1226, 20.970 1226 C 21.358 1226, 21.755 1228.099, 21.852 1230.665 C 21.949 1233.230, 22.527 1235.930, 23.137 1236.665 C 23.746 1237.399, 24.012 1238, 23.728 1238 C 23.443 1238, 23.631 1239.688, 24.145 1241.750 C 24.658 1243.813, 25.186 1245.950, 25.317 1246.500 C 25.449 1247.050, 25.834 1247.950, 26.174 1248.500 C 26.514 1249.050, 26.654 1250.737, 26.484 1252.250 C 26.315 1253.763, 26.527 1255, 26.956 1255 C 27.386 1255, 28.009 1256.688, 28.342 1258.750 C 28.675 1260.813, 29.234 1264.300, 29.585 1266.500 C 29.935 1268.700, 30.688 1270.792, 31.257 1271.149 C 31.826 1271.506, 32.042 1272.449, 31.737 1273.244 C 31.431 1274.039, 32.049 1276.627, 33.109 1278.994 C 34.168 1281.361, 34.820 1283.513, 34.558 1283.776 C 34.295 1284.039, 34.652 1285.434, 35.351 1286.877 C 36.051 1288.320, 36.544 1290.513, 36.448 1291.750 C 36.352 1292.987, 36.566 1294, 36.924 1294 C 37.282 1294, 37.648 1294.979, 37.738 1296.175 C 37.828 1297.371, 38.370 1299.508, 38.942 1300.925 C 39.514 1302.341, 40.178 1304.625, 40.417 1306 C 40.656 1307.375, 40.918 1308.500, 41 1308.500 C 41.082 1308.500, 41.349 1309.590, 41.594 1310.922 C 41.839 1312.253, 42.520 1313.921, 43.106 1314.628 C 43.692 1315.334, 43.906 1316.344, 43.580 1316.871 C 43.254 1317.398, 43.459 1317.986, 44.036 1318.179 C 44.612 1318.371, 45.238 1319.872, 45.428 1321.514 C 45.617 1323.156, 45.880 1324.612, 46.011 1324.750 C 46.142 1324.888, 46.306 1325.412, 46.375 1325.917 C 46.444 1326.421, 46.837 1327.171, 47.250 1327.583 C 47.662 1327.996, 48 1329.608, 48 1331.167 C 48 1332.725, 48.477 1334, 49.059 1334 C 49.641 1334, 49.859 1334.419, 49.543 1334.931 C 49.226 1335.443, 49.432 1336.149, 50 1336.500 C 50.568 1336.851, 50.774 1337.557, 50.457 1338.069 C 50.141 1338.581, 50.262 1339, 50.727 1339 C 51.191 1339, 51.631 1339.787, 51.703 1340.750 C 51.822 1342.338, 52.552 1345.744, 53.042 1347 C 53.149 1347.275, 53.184 1347.838, 53.118 1348.250 C 53.053 1348.662, 53.477 1349, 54.059 1349 C 54.641 1349, 54.859 1349.419, 54.543 1349.931 C 54.226 1350.443, 54.432 1351.149, 55 1351.500 C 55.568 1351.851, 55.774 1352.557, 55.457 1353.069 C 55.141 1353.581, 55.262 1354, 55.727 1354 C 56.191 1354, 56.657 1354.900, 56.762 1356 C 57.174 1360.326, 57.363 1361, 58.167 1361 C 58.625 1361, 59 1361.681, 59 1362.514 C 59 1363.346, 59.430 1364.809, 59.956 1365.764 C 60.482 1366.719, 61.620 1370.088, 62.484 1373.250 C 63.349 1376.412, 64.546 1379, 65.145 1379 C 65.743 1379, 65.998 1379.900, 65.710 1381 C 65.423 1382.100, 65.595 1383, 66.094 1383 C 66.592 1383, 67 1384.070, 67 1385.378 C 67 1386.685, 67.675 1388.315, 68.500 1389 C 69.325 1389.685, 70 1391.015, 70 1391.956 C 70 1392.897, 70.332 1393.998, 70.737 1394.404 C 71.143 1394.809, 71.496 1395.672, 71.523 1396.321 C 71.550 1396.969, 72.405 1399.300, 73.424 1401.500 C 76.728 1408.632, 77.112 1409.564, 77.363 1411.043 C 77.498 1411.844, 78.384 1413.963, 79.330 1415.750 C 80.277 1417.538, 80.820 1419, 80.538 1419 C 80.255 1419, 81.369 1421.485, 83.012 1424.523 C 84.655 1427.560, 86 1430.935, 86 1432.023 C 86 1433.110, 86.351 1434, 86.781 1434 C 87.612 1434, 89.495 1438.062, 91.569 1444.331 C 92.266 1446.438, 93.488 1448.913, 94.284 1449.831 C 95.080 1450.749, 96.044 1452.850, 96.427 1454.500 C 96.809 1456.150, 98.166 1459.097, 99.443 1461.050 C 102.830 1466.231, 107.211 1475.122, 106.653 1475.681 C 106.388 1475.946, 107.257 1477.764, 108.585 1479.721 C 109.913 1481.678, 111 1483.891, 111 1484.640 C 111 1485.388, 111.420 1486, 111.933 1486 C 112.823 1486, 114.188 1488.950, 113.784 1490 C 113.546 1490.617, 116.890 1496.668, 119.236 1499.868 C 120.191 1501.170, 120.727 1502.632, 120.427 1503.118 C 120.127 1503.603, 120.350 1504, 120.922 1504 C 121.494 1504, 122.240 1505.107, 122.579 1506.459 C 122.919 1507.811, 123.822 1509.437, 124.587 1510.072 C 125.352 1510.707, 125.731 1511.626, 125.430 1512.113 C 125.129 1512.601, 125.359 1513, 125.941 1513 C 126.523 1513, 127 1513.605, 127 1514.344 C 127 1515.084, 128.097 1516.965, 129.437 1518.525 C 130.777 1520.085, 132.164 1522.517, 132.518 1523.930 C 132.872 1525.344, 134.036 1527.314, 135.103 1528.310 C 136.171 1529.305, 136.783 1530.542, 136.463 1531.060 C 136.144 1531.577, 136.359 1532, 136.941 1532 C 137.523 1532, 138 1532.830, 138 1533.845 C 138 1534.860, 138.889 1536.495, 139.976 1537.479 C 141.063 1538.462, 141.710 1539.660, 141.413 1540.141 C 141.116 1540.621, 141.577 1541.284, 142.437 1541.614 C 143.296 1541.944, 144 1542.736, 144 1543.375 C 144 1544.013, 145.141 1546.215, 146.536 1548.268 C 147.931 1550.321, 148.762 1552, 148.383 1552 C 148.004 1552, 148.655 1552.833, 149.829 1553.852 C 151.003 1554.870, 151.714 1555.953, 151.408 1556.259 C 151.102 1556.565, 151.872 1557.988, 153.120 1559.423 C 154.367 1560.857, 155.501 1562.803, 155.639 1563.747 C 155.778 1564.691, 156.366 1565.622, 156.946 1565.815 C 157.525 1566.008, 158 1566.734, 158 1567.428 C 158 1568.122, 158.921 1569.524, 160.047 1570.542 C 161.172 1571.561, 162.770 1573.820, 163.597 1575.562 C 164.423 1577.304, 165.977 1579.672, 167.050 1580.823 C 168.122 1581.974, 169 1583.385, 169 1583.958 C 169 1584.531, 169.441 1585, 169.981 1585 C 170.520 1585, 171.244 1586.125, 171.589 1587.500 C 171.934 1588.875, 172.645 1590, 173.167 1590 C 173.690 1590, 173.890 1590.370, 173.610 1590.822 C 173.331 1591.274, 173.867 1592.367, 174.801 1593.251 C 177.242 1595.562, 179 1597.807, 179 1598.613 C 179 1598.997, 180.125 1600.786, 181.500 1602.589 C 182.875 1604.392, 184 1606.347, 184 1606.933 C 184 1607.520, 184.450 1608, 185 1608 C 185.550 1608, 186 1608.511, 186 1609.135 C 186 1609.760, 187.097 1611.288, 188.438 1612.530 C 189.779 1613.773, 190.615 1615.052, 190.295 1615.372 C 189.975 1615.691, 190.451 1616.236, 191.351 1616.581 C 192.252 1616.927, 192.738 1617.616, 192.431 1618.112 C 192.124 1618.608, 192.574 1619.283, 193.431 1619.612 C 194.288 1619.941, 194.740 1620.612, 194.435 1621.105 C 194.131 1621.597, 194.373 1622, 194.972 1622 C 195.572 1622, 196.353 1622.788, 196.707 1623.750 C 197.061 1624.713, 198.420 1626.513, 199.727 1627.750 C 201.034 1628.988, 201.770 1630, 201.363 1630 C 200.956 1630, 201.495 1630.878, 202.561 1631.952 C 205.273 1634.683, 207 1636.822, 207 1637.450 C 207 1637.744, 207.946 1639.073, 209.103 1640.403 C 210.259 1641.733, 211.267 1643.199, 211.341 1643.661 C 211.416 1644.122, 212.945 1645.847, 214.739 1647.493 C 216.532 1649.139, 218 1650.952, 218 1651.522 C 218 1652.092, 218.876 1653.190, 219.946 1653.961 C 221.017 1654.733, 221.684 1655.702, 221.430 1656.114 C 221.175 1656.526, 221.775 1657.456, 222.763 1658.182 C 224.837 1659.704, 236 1673.970, 236 1675.098 C 236 1675.513, 236.610 1675.999, 237.355 1676.177 C 238.607 1676.475, 249 1688.287, 249 1689.411 C 249 1689.933, 251.977 1693.269, 257.329 1698.745 C 259.073 1700.530, 260.200 1701.992, 259.834 1701.995 C 259.467 1701.998, 263.630 1706.428, 269.084 1711.840 C 274.538 1717.252, 279 1721.921, 279 1722.215 C 279 1722.844, 323.133 1767, 323.762 1767 C 323.998 1767, 328.198 1770.996, 333.095 1775.879 C 337.993 1780.763, 342.001 1784.475, 342.001 1784.129 C 342.002 1783.783, 343.239 1784.697, 344.751 1786.160 C 350.292 1791.521, 355.943 1796.550, 358.618 1798.500 C 360.126 1799.600, 362.384 1801.513, 363.635 1802.750 C 364.886 1803.988, 366.213 1805, 366.584 1805 C 367.182 1805, 368.941 1806.560, 378.658 1815.705 C 379.946 1816.917, 381.015 1817.592, 381.033 1817.205 C 381.052 1816.817, 381.952 1817.562, 383.033 1818.861 C 384.115 1820.159, 385.015 1820.834, 385.033 1820.361 C 385.052 1819.887, 385.896 1820.493, 386.909 1821.707 C 387.923 1822.922, 389.001 1823.665, 389.307 1823.360 C 389.612 1823.055, 390.451 1823.749, 391.171 1824.903 C 391.892 1826.056, 393.008 1827, 393.652 1827 C 394.295 1827, 395.937 1828.325, 397.300 1829.945 C 398.663 1831.564, 399.966 1832.701, 400.195 1832.471 C 400.425 1832.242, 402.078 1833.392, 403.868 1835.027 C 405.659 1836.662, 407.480 1838, 407.916 1838 C 408.351 1838, 409.922 1839.125, 411.405 1840.500 C 412.889 1841.875, 414.301 1843, 414.544 1843 C 414.983 1843, 419.091 1846.366, 421.562 1848.750 C 422.274 1849.438, 423.339 1850, 423.929 1850 C 424.518 1850, 425 1850.450, 425 1851 C 425 1851.550, 425.675 1852, 426.500 1852 C 427.325 1852, 428 1852.477, 428 1853.059 C 428 1853.641, 428.422 1853.857, 428.939 1853.538 C 429.455 1853.219, 430.242 1853.574, 430.689 1854.327 C 431.135 1855.080, 433.412 1856.949, 435.750 1858.481 C 438.087 1860.013, 440 1861.731, 440 1862.300 C 440 1862.868, 440.273 1863.060, 440.607 1862.726 C 440.942 1862.392, 442.399 1863.217, 443.847 1864.559 C 445.295 1865.902, 447.042 1867, 447.728 1867 C 448.865 1867, 451.292 1868.678, 454.408 1871.618 C 455.060 1872.233, 456.535 1873.035, 457.685 1873.400 C 458.836 1873.765, 461.002 1875.200, 462.500 1876.587 C 463.997 1877.975, 465.465 1878.868, 465.762 1878.572 C 466.058 1878.275, 467.358 1879.173, 468.650 1880.568 C 469.943 1881.962, 471 1882.824, 471 1882.483 C 471 1882.143, 472.307 1882.794, 473.904 1883.932 C 475.502 1885.069, 477.109 1886, 477.476 1886 C 477.843 1886, 478.770 1886.562, 479.537 1887.250 C 482.712 1890.098, 484.001 1891.043, 484.730 1891.058 C 485.154 1891.067, 486.474 1891.921, 487.664 1892.956 C 488.855 1893.991, 490.117 1894.550, 490.469 1894.198 C 490.821 1893.846, 491.422 1894.005, 491.804 1894.552 C 492.594 1895.681, 498.176 1899.434, 499.123 1899.474 C 499.466 1899.488, 501.240 1900.737, 503.066 1902.250 C 504.892 1903.762, 507.129 1905, 508.038 1905 C 508.947 1905, 510.514 1905.911, 511.522 1907.024 C 512.530 1908.138, 513.828 1908.891, 514.407 1908.698 C 514.987 1908.504, 516.590 1909.393, 517.970 1910.673 C 519.350 1911.953, 521.272 1913, 522.240 1913 C 523.208 1913, 524 1913.477, 524 1914.059 C 524 1914.641, 524.399 1914.871, 524.887 1914.570 C 525.374 1914.269, 526.329 1914.692, 527.009 1915.511 C 527.689 1916.330, 528.810 1917, 529.500 1917 C 530.190 1917, 531.315 1917.675, 532 1918.500 C 532.685 1919.325, 534.090 1920, 535.122 1920 C 536.155 1920, 537.789 1920.788, 538.754 1921.750 C 539.719 1922.713, 543.657 1925.012, 547.504 1926.860 C 551.352 1928.708, 556.512 1931.183, 558.971 1932.360 C 561.430 1933.537, 564.998 1935.554, 566.901 1936.842 C 568.804 1938.130, 571.067 1939.328, 571.930 1939.503 C 574.926 1940.112, 579.463 1942.130, 580.080 1943.129 C 580.421 1943.681, 581.330 1944.238, 582.100 1944.367 C 583.391 1944.583, 586.674 1945.942, 593 1948.880 C 594.375 1949.519, 596.873 1950.921, 598.551 1951.997 C 600.229 1953.072, 602.479 1954.097, 603.551 1954.275 C 604.623 1954.452, 606.625 1955.234, 608 1956.011 C 609.375 1956.789, 610.837 1957.329, 611.250 1957.212 C 611.663 1957.096, 612 1957.498, 612 1958.107 C 612 1958.716, 612.675 1958.955, 613.500 1958.638 C 614.325 1958.322, 615 1958.547, 615 1959.138 C 615 1959.730, 615.675 1959.955, 616.500 1959.638 C 617.325 1959.322, 618 1959.450, 618 1959.923 C 618 1960.396, 619.233 1961.093, 620.740 1961.471 C 622.247 1961.849, 623.729 1962.562, 624.033 1963.054 C 624.338 1963.547, 625.467 1964.140, 626.543 1964.373 C 630.629 1965.257, 633 1966.264, 633 1967.117 C 633 1967.602, 633.337 1967.927, 633.750 1967.839 C 634.163 1967.750, 635.767 1968.200, 637.315 1968.839 C 638.863 1969.477, 640.721 1970, 641.443 1970 C 642.165 1970, 643.324 1970.686, 644.020 1971.524 C 644.716 1972.362, 645.517 1972.816, 645.800 1972.533 C 646.084 1972.249, 646.873 1972.479, 647.553 1973.044 C 648.233 1973.608, 649.174 1973.983, 649.645 1973.876 C 650.698 1973.638, 653.640 1974.696, 657.154 1976.578 C 658.614 1977.360, 660.752 1978, 661.904 1978 C 663.057 1978, 664 1978.450, 664 1979 C 664 1979.550, 665.125 1980, 666.500 1980 C 667.875 1980, 669 1980.525, 669 1981.167 C 669 1981.808, 669.296 1982.037, 669.658 1981.675 C 670.020 1981.313, 670.920 1981.519, 671.658 1982.131 C 672.396 1982.744, 673 1982.910, 673 1982.500 C 673 1982.090, 673.562 1982.198, 674.250 1982.740 C 675.588 1983.793, 681.008 1985.436, 682.250 1985.164 C 682.663 1985.074, 683 1985.525, 683 1986.167 C 683 1986.808, 683.257 1987.077, 683.571 1986.763 C 683.885 1986.449, 685.315 1986.801, 686.749 1987.545 C 688.183 1988.289, 689.726 1988.669, 690.178 1988.390 C 690.630 1988.110, 691 1988.411, 691 1989.058 C 691 1989.741, 691.838 1990.014, 693 1989.710 C 694.100 1989.423, 695 1989.622, 695 1990.153 C 695 1990.684, 695.395 1990.874, 695.879 1990.575 C 696.362 1990.276, 698.150 1990.727, 699.852 1991.576 C 701.555 1992.425, 703.859 1993.189, 704.974 1993.273 C 706.088 1993.357, 707 1993.730, 707 1994.102 C 707 1994.473, 708.688 1995.093, 710.750 1995.478 C 712.813 1995.864, 715.132 1996.701, 715.904 1997.339 C 716.676 1997.978, 717.471 1998.353, 717.670 1998.174 C 718.626 1997.317, 731.066 2000.893, 732.109 2002.325 C 732.444 2002.785, 734.694 2003.315, 737.109 2003.503 C 739.524 2003.690, 742.850 2004.398, 744.500 2005.076 C 748.431 2006.689, 748.371 2006.671, 756.500 2008.734 C 760.350 2009.711, 763.988 2010.826, 764.584 2011.212 C 765.180 2011.597, 767.168 2012.177, 769 2012.500 C 770.832 2012.823, 772.695 2013.311, 773.139 2013.586 C 773.583 2013.860, 775.421 2014.294, 777.223 2014.549 C 780.627 2015.031, 784.136 2015.705, 785 2016.042 C 785.275 2016.149, 785.799 2016.196, 786.164 2016.147 C 786.530 2016.097, 789.230 2016.786, 792.164 2017.677 C 795.099 2018.567, 798.850 2019.416, 800.500 2019.561 C 802.150 2019.707, 806.200 2020.567, 809.500 2021.472 C 812.800 2022.377, 816.289 2023.290, 817.254 2023.502 C 818.218 2023.714, 819.456 2024.164, 820.004 2024.502 C 820.552 2024.841, 821.007 2024.529, 821.015 2023.809 C 821.027 2022.821, 821.218 2022.795, 821.796 2023.704 C 822.217 2024.367, 823.448 2024.874, 824.531 2024.832 C 825.614 2024.790, 829.425 2025.544, 833 2026.507 C 836.575 2027.470, 841.885 2028.409, 844.800 2028.594 C 847.715 2028.778, 854.465 2029.860, 859.800 2030.999 C 865.135 2032.137, 871.525 2033.248, 874 2033.466 C 876.475 2033.685, 878.500 2033.917, 878.500 2033.982 C 878.500 2034.047, 880.300 2034.303, 882.500 2034.550 C 889.785 2035.369, 892.426 2035.738, 900.500 2037.060 C 904.900 2037.780, 910.750 2038.465, 913.500 2038.582 C 916.250 2038.699, 918.500 2038.897, 918.500 2039.021 C 918.500 2039.145, 921.425 2039.376, 925 2039.533 C 928.575 2039.691, 933.525 2040.061, 936 2040.355 C 952.656 2042.337, 964.419 2043.199, 977.544 2043.398 C 985.818 2043.524, 993.018 2043.867, 993.544 2044.160 C 994.412 2044.644, 1056.500 2044.573, 1056.500 2044.088 C 1056.500 2043.974, 1062.922 2043.705, 1070.771 2043.492 C 1078.620 2043.278, 1092.795 2042.336, 1102.271 2041.399 C 1111.747 2040.462, 1121.188 2039.661, 1123.250 2039.620 C 1125.313 2039.579, 1127.007 2039.085, 1127.015 2038.523 C 1127.024 2037.942, 1127.348 2037.999, 1127.766 2038.655 C 1128.313 2039.516, 1131.818 2039.317, 1141.501 2037.875 C 1148.650 2036.810, 1156.300 2035.676, 1158.500 2035.354 C 1160.700 2035.032, 1163.963 2034.835, 1165.750 2034.916 C 1167.537 2034.996, 1169 2034.691, 1169 2034.237 C 1169 2033.783, 1171.988 2033.301, 1175.639 2033.166 C 1179.291 2033.031, 1183.004 2032.545, 1183.889 2032.086 C 1186.049 2030.965, 1198.876 2028.805, 1199.838 2029.400 C 1200.258 2029.659, 1205.753 2028.610, 1212.050 2027.068 C 1218.348 2025.527, 1224.063 2024.479, 1224.750 2024.740 C 1225.438 2025.001, 1226 2024.828, 1226.001 2024.357 C 1226.001 2023.886, 1227.689 2023.429, 1229.751 2023.342 C 1231.813 2023.255, 1234.513 2022.918, 1235.750 2022.592 C 1236.987 2022.266, 1238.936 2021.794, 1240.080 2021.542 C 1241.224 2021.290, 1243.136 2020.756, 1244.330 2020.354 C 1245.523 2019.953, 1247.400 2019.483, 1248.500 2019.311 C 1249.600 2019.139, 1252.300 2018.720, 1254.500 2018.380 C 1256.700 2018.041, 1258.950 2017.409, 1259.500 2016.977 C 1260.050 2016.544, 1262.240 2015.917, 1264.367 2015.582 C 1266.493 2015.248, 1268.646 2014.719, 1269.150 2014.407 C 1269.654 2014.096, 1271.739 2013.641, 1273.783 2013.397 C 1275.827 2013.153, 1279.075 2012.420, 1281 2011.769 C 1282.925 2011.118, 1284.725 2010.527, 1285 2010.456 C 1285.275 2010.385, 1286.273 2009.986, 1287.217 2009.569 C 1288.161 2009.152, 1289.511 2009.009, 1290.217 2009.251 C 1290.923 2009.492, 1293.418 2008.873, 1295.763 2007.875 C 1298.107 2006.877, 1300.132 2006.078, 1300.263 2006.100 C 1300.393 2006.122, 1301.850 2005.624, 1303.500 2004.992 C 1305.150 2004.361, 1308.476 2003.690, 1310.891 2003.503 C 1313.306 2003.315, 1315.556 2002.785, 1315.891 2002.325 C 1316.934 2000.893, 1329.374 1997.317, 1330.330 1998.174 C 1330.529 1998.353, 1331.324 1997.978, 1332.096 1997.339 C 1332.868 1996.701, 1335.188 1995.864, 1337.250 1995.478 C 1339.313 1995.093, 1341 1994.473, 1341 1994.102 C 1341 1993.730, 1341.912 1993.357, 1343.026 1993.273 C 1344.141 1993.189, 1346.445 1992.425, 1348.148 1991.576 C 1349.850 1990.727, 1351.638 1990.276, 1352.121 1990.575 C 1352.605 1990.874, 1353 1990.684, 1353 1990.153 C 1353 1989.622, 1353.900 1989.423, 1355 1989.710 C 1356.162 1990.014, 1357 1989.741, 1357 1989.058 C 1357 1988.411, 1357.370 1988.110, 1357.822 1988.390 C 1358.274 1988.669, 1359.817 1988.289, 1361.251 1987.545 C 1362.685 1986.801, 1364.115 1986.449, 1364.429 1986.763 C 1364.743 1987.077, 1365 1986.808, 1365 1986.167 C 1365 1985.525, 1365.338 1985.074, 1365.750 1985.164 C 1366.992 1985.436, 1372.412 1983.793, 1373.750 1982.740 C 1374.438 1982.198, 1375 1982.090, 1375 1982.500 C 1375 1982.910, 1375.604 1982.744, 1376.342 1982.131 C 1377.080 1981.519, 1377.980 1981.313, 1378.342 1981.675 C 1378.704 1982.037, 1379 1981.808, 1379 1981.167 C 1379 1980.525, 1380.125 1980, 1381.500 1980 C 1382.875 1980, 1384 1979.550, 1384 1979 C 1384 1978.450, 1385.025 1978, 1386.277 1978 C 1387.530 1978, 1389.496 1977.341, 1390.646 1976.535 C 1391.796 1975.730, 1392.957 1975.291, 1393.226 1975.559 C 1393.495 1975.828, 1394.284 1975.362, 1394.980 1974.524 C 1395.676 1973.686, 1396.977 1972.997, 1397.872 1972.994 C 1398.768 1972.990, 1400.818 1972.300, 1402.430 1971.460 C 1404.041 1970.619, 1406.966 1969.677, 1408.930 1969.366 C 1410.893 1969.055, 1412.725 1968.484, 1413 1968.097 C 1413.442 1967.477, 1417.319 1965.703, 1426.689 1961.837 C 1428.235 1961.199, 1429.838 1960.750, 1430.250 1960.839 C 1430.662 1960.927, 1431 1960.502, 1431 1959.893 C 1431 1959.284, 1431.675 1959.045, 1432.500 1959.362 C 1433.325 1959.678, 1434 1959.550, 1434 1959.077 C 1434 1958.604, 1435.210 1957.913, 1436.689 1957.542 C 1438.168 1957.171, 1440.530 1956.046, 1441.939 1955.043 C 1444.583 1953.160, 1445.014 1953, 1447.429 1953 C 1448.214 1953, 1449.514 1952.343, 1450.317 1951.540 C 1451.121 1950.737, 1452.959 1949.865, 1454.403 1949.603 C 1455.847 1949.341, 1459.610 1947.570, 1462.765 1945.668 C 1465.919 1943.765, 1470.631 1941.494, 1473.235 1940.621 C 1478.251 1938.940, 1488.605 1933.444, 1490.820 1931.288 C 1491.546 1930.581, 1493.346 1929.703, 1494.820 1929.337 C 1497.329 1928.713, 1509.900 1922.280, 1511 1921.056 C 1511.275 1920.750, 1514.200 1919.150, 1517.500 1917.500 C 1520.800 1915.850, 1523.725 1914.275, 1524 1914 C 1524.275 1913.725, 1526.188 1912.642, 1528.250 1911.593 C 1530.313 1910.543, 1532 1909.320, 1532 1908.874 C 1532 1908.428, 1532.591 1908.290, 1533.313 1908.567 C 1534.035 1908.844, 1535.455 1908.155, 1536.468 1907.035 C 1537.481 1905.916, 1539.154 1905, 1540.186 1905 C 1541.218 1905, 1542.322 1904.325, 1542.638 1903.500 C 1542.955 1902.675, 1543.786 1902, 1544.485 1902 C 1545.183 1902, 1546.311 1901.330, 1546.991 1900.511 C 1547.671 1899.692, 1548.568 1899.233, 1548.984 1899.490 C 1549.655 1899.905, 1551.054 1898.969, 1555.816 1894.918 C 1556.539 1894.302, 1557.375 1894.042, 1557.672 1894.339 C 1557.970 1894.636, 1559.177 1893.972, 1560.356 1892.862 C 1561.535 1891.752, 1563.963 1890.227, 1565.750 1889.473 C 1567.537 1888.719, 1569 1887.629, 1569 1887.051 C 1569 1886.473, 1569.482 1886, 1570.071 1886 C 1570.661 1886, 1571.822 1885.321, 1572.652 1884.491 C 1573.482 1883.661, 1574.575 1883.237, 1575.081 1883.550 C 1575.586 1883.862, 1576 1883.615, 1576 1883 C 1576 1882.385, 1576.453 1882.162, 1577.007 1882.504 C 1577.561 1882.847, 1578.283 1882.426, 1578.612 1881.569 C 1578.941 1880.712, 1579.612 1880.260, 1580.105 1880.565 C 1580.597 1880.869, 1581 1880.431, 1581 1879.590 C 1581 1878.643, 1581.570 1878.282, 1582.500 1878.638 C 1583.325 1878.955, 1584 1878.716, 1584 1878.107 C 1584 1877.498, 1584.620 1877, 1585.378 1877 C 1586.135 1877, 1587.353 1876.279, 1588.084 1875.399 C 1589.711 1873.439, 1599.651 1867, 1601.051 1867 C 1601.607 1867, 1602.322 1866.325, 1602.638 1865.500 C 1602.955 1864.675, 1603.771 1864, 1604.452 1864 C 1605.133 1864, 1606.505 1863.100, 1607.500 1862 C 1608.495 1860.900, 1609.816 1860, 1610.434 1860 C 1611.053 1860, 1612.207 1859.100, 1613 1858 C 1613.793 1856.900, 1615.017 1856, 1615.721 1856 C 1616.424 1856, 1617 1855.550, 1617 1855 C 1617 1854.450, 1617.447 1854, 1617.992 1854 C 1618.538 1854, 1620.149 1852.988, 1621.573 1851.750 C 1622.996 1850.513, 1624.330 1849.725, 1624.537 1850 C 1624.744 1850.275, 1625.594 1849.600, 1626.425 1848.500 C 1627.256 1847.400, 1627.951 1846.855, 1627.968 1847.289 C 1628.004 1848.177, 1629.809 1846.801, 1633.924 1842.750 C 1635.460 1841.237, 1637.230 1840, 1637.858 1840 C 1638.486 1840, 1639 1839.550, 1639 1839 C 1639 1838.450, 1639.510 1838, 1640.133 1838 C 1640.756 1838, 1641.993 1837.208, 1642.883 1836.239 C 1643.772 1835.270, 1646.284 1833.149, 1648.464 1831.524 C 1650.645 1829.900, 1653.120 1827.985, 1653.964 1827.268 C 1660.346 1821.854, 1663.003 1819.912, 1663.022 1820.646 C 1663.034 1821.116, 1663.822 1820.573, 1664.772 1819.439 C 1667.167 1816.583, 1676.572 1809, 1677.720 1809 C 1678.238 1809, 1679.253 1807.897, 1679.974 1806.548 C 1680.696 1805.199, 1681.623 1804.187, 1682.035 1804.298 C 1682.446 1804.409, 1683.731 1803.419, 1684.891 1802.097 C 1686.051 1800.775, 1687 1799.980, 1687 1800.329 C 1687 1800.679, 1688.645 1799.367, 1690.656 1797.414 C 1692.667 1795.462, 1695.929 1792.657, 1697.906 1791.182 C 1699.883 1789.707, 1702.320 1787.487, 1703.323 1786.250 C 1704.325 1785.013, 1705.564 1784, 1706.075 1784 C 1706.587 1784, 1708.614 1782.219, 1710.580 1780.043 C 1712.547 1777.866, 1714.908 1775.839, 1715.828 1775.538 C 1716.748 1775.238, 1718.479 1773.475, 1719.676 1771.622 C 1720.873 1769.769, 1723.894 1766.958, 1726.390 1765.376 C 1728.885 1763.794, 1730.943 1762.026, 1730.963 1761.447 C 1730.984 1760.868, 1739.550 1751.915, 1750 1741.552 C 1760.450 1731.190, 1769 1722.437, 1769 1722.102 C 1769 1721.077, 1774.750 1716, 1775.910 1716 C 1776.510 1716, 1777 1715.656, 1777 1715.235 C 1777 1714.272, 1796.846 1691.618, 1798.085 1691.167 C 1798.588 1690.983, 1799 1690.221, 1799 1689.473 C 1799 1688.725, 1799.795 1687.525, 1800.767 1686.807 C 1801.739 1686.088, 1803.252 1684.375, 1804.128 1683 C 1805.005 1681.625, 1807.856 1678.250, 1810.464 1675.500 C 1813.073 1672.750, 1816.587 1668.588, 1818.273 1666.250 C 1819.959 1663.912, 1821.713 1662, 1822.170 1662 C 1822.626 1662, 1823 1661.433, 1823 1660.741 C 1823 1660.048, 1823.917 1658.908, 1825.039 1658.208 C 1826.160 1657.508, 1826.818 1656.514, 1826.500 1656 C 1826.182 1655.486, 1826.840 1654.492, 1827.961 1653.792 C 1829.083 1653.092, 1830 1652.137, 1830 1651.670 C 1830 1650.911, 1831.942 1648.550, 1837.183 1642.936 C 1838.109 1641.945, 1839.684 1639.866, 1840.683 1638.317 C 1842.829 1634.992, 1844.844 1632.393, 1847.250 1629.850 C 1848.213 1628.832, 1849 1627.616, 1849 1627.146 C 1849 1626.676, 1850.104 1625.101, 1851.452 1623.646 C 1852.801 1622.191, 1853.615 1621, 1853.261 1621 C 1852.907 1621, 1853.491 1620.339, 1854.559 1619.532 C 1855.626 1618.724, 1856.076 1618.049, 1855.559 1618.032 C 1855.041 1618.014, 1855.491 1617.339, 1856.559 1616.532 C 1857.626 1615.724, 1858.139 1615.049, 1857.698 1615.032 C 1857.258 1615.014, 1858.045 1613.936, 1859.448 1612.635 C 1860.852 1611.335, 1862 1609.760, 1862 1609.135 C 1862 1608.511, 1862.450 1608, 1863 1608 C 1863.550 1608, 1864 1607.425, 1864 1606.723 C 1864 1605.628, 1868.984 1598.321, 1873.473 1592.835 C 1874.223 1591.918, 1874.573 1590.906, 1874.251 1590.585 C 1873.930 1590.263, 1874.192 1590, 1874.833 1590 C 1875.475 1590, 1876 1589.325, 1876 1588.500 C 1876 1587.675, 1876.477 1587, 1877.059 1587 C 1877.641 1587, 1877.840 1586.550, 1877.500 1586 C 1877.160 1585.450, 1877.359 1585, 1877.941 1585 C 1878.523 1585, 1879 1584.531, 1879 1583.958 C 1879 1583.385, 1879.878 1581.974, 1880.950 1580.823 C 1882.023 1579.672, 1883.668 1577.103, 1884.607 1575.115 C 1885.545 1573.127, 1887.143 1570.912, 1888.157 1570.193 C 1889.170 1569.475, 1890 1568.275, 1890 1567.527 C 1890 1566.779, 1890.475 1566.008, 1891.054 1565.815 C 1891.634 1565.622, 1892.229 1564.648, 1892.375 1563.652 C 1892.521 1562.655, 1893.092 1561.539, 1893.643 1561.170 C 1894.784 1560.408, 1896.402 1556.891, 1896.149 1555.722 C 1896.057 1555.294, 1896.661 1554.684, 1897.491 1554.365 C 1898.321 1554.047, 1899 1553.214, 1899 1552.515 C 1899 1551.817, 1899.670 1550.689, 1900.489 1550.009 C 1901.308 1549.329, 1901.763 1548.425, 1901.500 1548 C 1901.237 1547.575, 1901.692 1546.671, 1902.511 1545.991 C 1903.330 1545.311, 1904 1544.135, 1904 1543.378 C 1904 1542.620, 1904.418 1542, 1904.930 1542 C 1905.441 1542, 1906.904 1539.862, 1908.180 1537.250 C 1909.456 1534.638, 1910.840 1532.349, 1911.256 1532.165 C 1911.672 1531.980, 1911.800 1531.485, 1911.539 1531.064 C 1911.279 1530.643, 1912.176 1528.794, 1913.533 1526.955 C 1914.890 1525.116, 1916 1523.217, 1916 1522.736 C 1916 1522.254, 1917.350 1519.898, 1919 1517.500 C 1920.650 1515.102, 1922 1512.865, 1922 1512.529 C 1922 1512.194, 1922.905 1510.695, 1924.011 1509.198 C 1925.118 1507.702, 1926.238 1505.359, 1926.501 1503.992 C 1926.765 1502.625, 1927.435 1501.355, 1927.990 1501.170 C 1928.546 1500.985, 1929 1500.251, 1929 1499.539 C 1929 1498.827, 1929.650 1497.705, 1930.445 1497.045 C 1931.240 1496.386, 1932.626 1493.631, 1933.526 1490.923 C 1934.425 1488.215, 1935.575 1486, 1936.080 1486 C 1936.586 1486, 1937 1485.437, 1937 1484.750 C 1937 1484.062, 1940.375 1476.794, 1944.500 1468.600 C 1948.625 1460.405, 1952 1453.274, 1952 1452.754 C 1952 1452.234, 1952.841 1450.614, 1953.869 1449.154 C 1954.897 1447.694, 1956.048 1445.375, 1956.428 1444 C 1957.520 1440.046, 1960.427 1434.024, 1961.250 1434.011 C 1961.662 1434.005, 1962 1433.110, 1962 1432.023 C 1962 1430.935, 1963.345 1427.560, 1964.988 1424.523 C 1966.631 1421.485, 1967.704 1419, 1967.373 1419 C 1967.041 1419, 1967.529 1417.842, 1968.457 1416.426 C 1969.384 1415.010, 1970.327 1412.872, 1970.551 1411.676 C 1970.775 1410.479, 1971.372 1408.600, 1971.877 1407.500 C 1972.383 1406.400, 1973.620 1403.700, 1974.626 1401.500 C 1975.633 1399.300, 1976.516 1396.746, 1976.588 1395.825 C 1976.660 1394.904, 1977.683 1392.303, 1978.860 1390.044 C 1980.037 1387.786, 1981 1385.277, 1981 1384.469 C 1981 1383.661, 1981.436 1383, 1981.969 1383 C 1982.501 1383, 1982.661 1382.280, 1982.323 1381.399 C 1981.985 1380.519, 1982.254 1379.461, 1982.921 1379.049 C 1983.587 1378.637, 1984.260 1377.670, 1984.415 1376.900 C 1984.571 1376.130, 1984.954 1374.825, 1985.267 1374 C 1985.579 1373.175, 1986.609 1369.913, 1987.555 1366.750 C 1988.500 1363.588, 1989.737 1361, 1990.304 1361 C 1990.870 1361, 1991.037 1360.704, 1990.675 1360.342 C 1990.313 1359.980, 1990.514 1359.086, 1991.121 1358.355 C 1991.727 1357.624, 1991.963 1356.345, 1991.643 1355.513 C 1991.324 1354.681, 1991.525 1354, 1992.090 1354 C 1992.656 1354, 1992.859 1353.581, 1992.543 1353.069 C 1992.226 1352.557, 1992.432 1351.851, 1993 1351.500 C 1993.568 1351.149, 1993.774 1350.443, 1993.457 1349.931 C 1993.141 1349.419, 1993.359 1349, 1993.941 1349 C 1994.523 1349, 1994.947 1348.662, 1994.882 1348.250 C 1994.816 1347.838, 1994.851 1347.275, 1994.958 1347 C 1995.448 1345.744, 1996.178 1342.338, 1996.297 1340.750 C 1996.369 1339.787, 1996.809 1339, 1997.273 1339 C 1997.738 1339, 1997.859 1338.581, 1997.543 1338.069 C 1997.226 1337.557, 1997.432 1336.851, 1998 1336.500 C 1998.568 1336.149, 1998.774 1335.443, 1998.457 1334.931 C 1998.141 1334.419, 1998.260 1334, 1998.723 1334 C 1999.185 1334, 1999.660 1332.835, 1999.778 1331.411 C 1999.896 1329.987, 2000.319 1328.299, 2000.718 1327.661 C 2001.484 1326.436, 2001.540 1326.243, 2002.506 1321.500 C 2002.843 1319.850, 2003.544 1318.349, 2004.065 1318.165 C 2004.586 1317.980, 2004.746 1317.398, 2004.420 1316.871 C 2004.094 1316.344, 2004.308 1315.334, 2004.894 1314.628 C 2005.480 1313.921, 2006.161 1312.253, 2006.406 1310.922 C 2006.651 1309.590, 2006.941 1308.388, 2007.051 1308.250 C 2007.160 1308.112, 2007.345 1307.213, 2007.461 1306.250 C 2007.578 1305.287, 2008.006 1303.748, 2008.413 1302.828 C 2008.821 1301.909, 2009.275 1300.559, 2009.423 1299.828 C 2009.571 1299.098, 2010.228 1297.191, 2010.882 1295.591 C 2011.536 1293.990, 2011.984 1291.965, 2011.877 1291.091 C 2011.626 1289.045, 2012.755 1284.441, 2014.596 1280 C 2015.979 1276.663, 2016.530 1274.620, 2017.562 1269 C 2017.814 1267.625, 2018.288 1265.375, 2018.615 1264 C 2018.942 1262.625, 2019.432 1260.150, 2019.704 1258.500 C 2019.976 1256.850, 2020.602 1254.745, 2021.095 1253.822 C 2021.589 1252.900, 2021.739 1251.483, 2021.428 1250.674 C 2021.118 1249.864, 2021.318 1248.921, 2021.874 1248.578 C 2022.778 1248.019, 2024.651 1239.073, 2024.066 1238.112 C 2023.936 1237.898, 2024.292 1237.438, 2024.857 1237.089 C 2025.422 1236.739, 2025.994 1234.326, 2026.129 1231.727 C 2026.264 1229.127, 2026.681 1227, 2027.057 1227 C 2027.433 1227, 2028.028 1224.862, 2028.380 1222.250 C 2029.034 1217.402, 2029.565 1214.439, 2030.574 1210 C 2030.886 1208.625, 2031.223 1206.037, 2031.321 1204.250 C 2031.419 1202.463, 2031.763 1201, 2032.083 1201 C 2032.404 1201, 2032.729 1199.537, 2032.804 1197.750 C 2032.880 1195.963, 2033.203 1193.150, 2033.523 1191.500 C 2033.843 1189.850, 2034.266 1187.600, 2034.464 1186.500 C 2034.661 1185.400, 2035.263 1182.475, 2035.801 1180 C 2036.339 1177.525, 2036.825 1174.825, 2036.881 1174 C 2037.388 1166.608, 2037.870 1162.109, 2038.383 1160 C 2038.718 1158.625, 2039.240 1155.250, 2039.544 1152.500 C 2039.848 1149.750, 2040.467 1146.116, 2040.920 1144.423 C 2041.372 1142.731, 2041.688 1139.244, 2041.621 1136.673 C 2041.555 1134.102, 2041.824 1131.999, 2042.221 1131.999 C 2042.617 1132, 2042.873 1130.088, 2042.788 1127.750 C 2042.636 1123.515, 2043.694 1109.752, 2044.539 1105 C 2045.318 1100.615, 2046.441 1083.760, 2046.471 1076 C 2046.489 1071.338, 2046.949 1068.211, 2047.687 1067.735 C 2048.962 1066.915, 2049.276 1058.711, 2048.003 1059.498 C 2047.584 1059.757, 2047.211 1056.837, 2047.175 1053.010 C 2047.139 1049.182, 2047.535 1045.787, 2048.055 1045.466 C 2048.605 1045.126, 2049 1035.058, 2049 1021.382 C 2049 1005.970, 2048.656 998.095, 2048 998.500 C 2047.373 998.888, 2047 996.697, 2047 992.618 C 2047 989.043, 2047.450 985.840, 2048 985.500 C 2048.550 985.160, 2048.993 982.546, 2048.985 979.691 C 2048.974 975.971, 2048.695 974.925, 2048 976 C 2046.762 977.916, 2046.815 978.250, 2046.506 966.500 C 2046.229 955.955, 2045.242 940.870, 2044.609 937.500 C 2043.622 932.250, 2042.714 921.974, 2042.819 917.250 C 2042.883 914.363, 2042.613 911.996, 2042.218 911.992 C 2041.823 911.987, 2041.434 909.625, 2041.352 906.742 C 2041.271 903.859, 2040.986 900.150, 2040.719 898.500 C 2040.452 896.850, 2039.702 891.900, 2039.051 887.500 C 2038.401 883.100, 2037.487 878.263, 2037.021 876.750 C 2036.540 875.188, 2036.555 874, 2037.055 874 C 2037.540 874, 2037.748 873.437, 2037.516 872.750 C 2037.089 871.482, 2036.356 867.353, 2035.431 861 C 2035.151 859.075, 2034.307 854.837, 2033.556 851.583 C 2032.805 848.329, 2032.421 845.067, 2032.702 844.333 C 2032.984 843.600, 2032.758 843, 2032.201 843 C 2031.643 843, 2031.415 842.127, 2031.694 841.061 C 2031.973 839.995, 2031.501 836.957, 2030.646 834.311 C 2029.790 831.665, 2028.916 828.150, 2028.704 826.500 C 2028.491 824.850, 2027.973 822.712, 2027.552 821.750 C 2027.131 820.787, 2027.040 819.339, 2027.349 818.532 C 2027.659 817.725, 2027.475 816.794, 2026.940 816.463 C 2026.405 816.132, 2026.232 815.434, 2026.555 814.911 C 2026.878 814.389, 2026.554 812.282, 2025.835 810.230 C 2025.116 808.179, 2024.488 806.050, 2024.439 805.500 C 2024.391 804.950, 2023.849 802.779, 2023.236 800.675 C 2022.622 798.572, 2022.349 796.255, 2022.628 795.527 C 2022.908 794.798, 2022.648 793.901, 2022.052 793.532 C 2021.455 793.163, 2021.238 792.423, 2021.570 791.887 C 2021.901 791.351, 2021.758 790.370, 2021.251 789.706 C 2020.322 788.489, 2018.524 780.878, 2017.422 773.500 C 2017.093 771.300, 2016.230 768.150, 2015.503 766.500 C 2014.281 763.724, 2013.096 759.241, 2012.793 756.250 C 2012.724 755.563, 2012.390 755, 2012.051 755 C 2011.713 755, 2011.339 753.825, 2011.220 752.389 C 2011.101 750.953, 2010.288 747.691, 2009.412 745.139 C 2008.537 742.588, 2007.660 739.825, 2007.465 739 C 2007.270 738.175, 2006.664 736.029, 2006.119 734.232 C 2005.575 732.434, 2005.100 730.746, 2005.065 730.482 C 2004.883 729.128, 2004.417 727.704, 2003.166 724.685 C 2002.525 723.137, 2002 720.801, 2002 719.494 C 2002 718.187, 2001.543 716.835, 2000.984 716.490 C 2000.425 716.144, 2000.226 715.443, 2000.543 714.931 C 2000.859 714.419, 2000.622 714, 2000.015 714 C 1999.409 714, 1999.004 713.437, 1999.117 712.750 C 1999.229 712.062, 1998.737 710.150, 1998.024 708.500 C 1997.311 706.850, 1996.765 704.660, 1996.811 703.633 C 1996.856 702.607, 1996.267 700.807, 1995.501 699.633 C 1994.735 698.460, 1993.835 695.925, 1993.501 694 C 1993.168 692.075, 1992.493 690.358, 1992.003 690.185 C 1991.513 690.012, 1991.343 689.270, 1991.624 688.537 C 1991.906 687.803, 1991.648 686.901, 1991.052 686.532 C 1990.455 686.163, 1990.226 685.443, 1990.543 684.931 C 1990.859 684.419, 1990.641 684, 1990.059 684 C 1989.477 684, 1989 683.155, 1989 682.122 C 1989 681.089, 1988.319 678.614, 1987.487 676.622 C 1986.654 674.630, 1986.256 673, 1986.602 673 C 1986.947 673, 1986.493 671.875, 1985.592 670.500 C 1984.691 669.125, 1984.259 668, 1984.632 668 C 1985.005 668, 1984.495 667.100, 1983.500 666 C 1982.505 664.900, 1982.040 664, 1982.467 664 C 1982.895 664, 1982.685 663.325, 1982 662.500 C 1981.315 661.675, 1981.047 661, 1981.403 661 C 1981.760 661, 1981.383 659.707, 1980.566 658.127 C 1979.748 656.547, 1979.362 654.972, 1979.707 654.627 C 1980.051 654.282, 1979.808 654, 1979.167 654 C 1978.525 654, 1978 653.094, 1978 651.986 C 1978 650.879, 1977.606 649.191, 1977.125 648.236 C 1973.137 640.321, 1972.076 637.686, 1972.559 636.905 C 1972.866 636.407, 1972.641 636, 1972.059 636 C 1971.477 636, 1971 635.068, 1971 633.929 C 1971 632.789, 1970.325 631.182, 1969.500 630.357 C 1968.675 629.532, 1968 627.989, 1968 626.929 C 1968 625.868, 1967.625 625, 1967.167 625 C 1966.708 625, 1966.333 624.349, 1966.333 623.552 C 1966.333 622.165, 1964.865 618.833, 1959.121 607.185 C 1957.679 604.262, 1956.479 601.562, 1956.453 601.185 C 1956.427 600.808, 1955.189 598.152, 1953.703 595.283 C 1952.216 592.414, 1951 589.593, 1951 589.013 C 1951 588.434, 1949.869 586.169, 1948.487 583.980 C 1947.106 581.791, 1946.194 580, 1946.462 580 C 1946.729 580, 1945.610 577.730, 1943.974 574.956 C 1942.338 572.182, 1941 569.497, 1941 568.990 C 1941 567.487, 1937.690 561, 1936.923 561 C 1936.535 561, 1935.913 559.790, 1935.542 558.311 C 1935.171 556.832, 1933.997 554.400, 1932.934 552.907 C 1931.870 551.413, 1931 549.770, 1931 549.255 C 1931 548.739, 1928.530 543.859, 1925.511 538.409 C 1922.492 532.959, 1920.017 528.007, 1920.011 527.405 C 1920.005 526.803, 1919.111 525.505, 1918.024 524.521 C 1916.937 523.538, 1916.278 522.359, 1916.560 521.903 C 1916.842 521.446, 1916.180 520.180, 1915.090 519.090 C 1912.914 516.914, 1909.592 511, 1910.546 511 C 1910.874 511, 1910.548 510.341, 1909.821 509.535 C 1907.484 506.943, 1906.508 505.455, 1906.170 503.970 C 1905.988 503.172, 1905.313 502.184, 1904.670 501.775 C 1904.026 501.365, 1903.855 501.024, 1904.289 501.015 C 1904.724 501.007, 1904.605 500.438, 1904.025 499.750 C 1901.994 497.340, 1898 490.903, 1898 490.039 C 1898 489.559, 1897.636 489.017, 1897.191 488.833 C 1896.746 488.650, 1894.863 485.800, 1893.007 482.500 C 1891.151 479.200, 1889.377 476.275, 1889.066 476 C 1888.755 475.725, 1887.430 473.372, 1886.122 470.770 C 1884.814 468.169, 1883.351 466.283, 1882.872 466.579 C 1882.392 466.876, 1882 466.397, 1882 465.517 C 1882 464.636, 1881.542 463.372, 1880.981 462.708 C 1877.217 458.244, 1876 456.614, 1876 456.036 C 1876 455.673, 1875.110 454.422, 1874.022 453.254 C 1872.934 452.086, 1871.921 450.549, 1871.772 449.839 C 1871.514 448.613, 1871.095 447.983, 1868.310 444.641 C 1867.656 443.856, 1867.383 442.951, 1867.703 442.630 C 1868.024 442.309, 1867.549 441.764, 1866.649 441.419 C 1865.748 441.073, 1865.262 440.384, 1865.569 439.888 C 1865.876 439.392, 1865.423 438.716, 1864.563 438.386 C 1863.704 438.056, 1863 437.159, 1863 436.393 C 1863 435.627, 1862.656 435, 1862.236 435 C 1861.816 435, 1860.360 433.200, 1859 431 C 1857.640 428.800, 1856.158 427, 1855.705 427 C 1855.252 427, 1855.162 426.547, 1855.504 425.993 C 1855.847 425.439, 1855.423 424.716, 1854.563 424.386 C 1853.704 424.056, 1853 423.352, 1853 422.822 C 1853 422.291, 1852.438 421.241, 1851.750 420.488 C 1851.063 419.735, 1849.375 417.471, 1848 415.457 C 1846.625 413.442, 1843.813 409.930, 1841.750 407.652 C 1839.688 405.374, 1838 403.196, 1838 402.811 C 1838 402.426, 1836.427 400.399, 1834.505 398.306 C 1832.582 396.213, 1831.007 393.960, 1831.005 393.300 C 1831.002 392.640, 1830.398 391.740, 1829.661 391.300 C 1828.925 390.860, 1827.913 389.774, 1827.411 388.887 C 1826.248 386.827, 1821.675 381.216, 1816.261 375.206 C 1813.929 372.618, 1812.017 370.161, 1812.011 369.747 C 1812.005 369.333, 1810.200 367.369, 1808 365.381 C 1805.800 363.393, 1804 361.167, 1804 360.433 C 1804 359.700, 1803.387 358.740, 1802.637 358.300 C 1801.887 357.860, 1798.666 354.412, 1795.478 350.637 C 1792.291 346.862, 1788.742 342.764, 1787.591 341.530 C 1786.441 340.296, 1781.450 334.923, 1776.500 329.591 C 1763.605 315.699, 1726.945 279, 1725.963 279 C 1725.508 279, 1724.847 278.093, 1724.495 276.985 C 1724.144 275.877, 1723.507 275.187, 1723.081 275.450 C 1722.654 275.714, 1720.995 274.483, 1719.394 272.715 C 1716.554 269.580, 1706.601 260.473, 1694.500 249.939 C 1691.200 247.066, 1687.049 243.430, 1685.277 241.858 C 1683.504 240.286, 1681.691 239, 1681.247 239 C 1680.804 239, 1679.793 238.100, 1679 237 C 1678.207 235.900, 1677.193 235, 1676.746 235 C 1676.298 235, 1674.651 233.763, 1673.084 232.250 C 1670.070 229.340, 1665.082 225.179, 1661.106 222.259 C 1659.789 221.291, 1657.631 219.488, 1656.310 218.250 C 1654.990 217.013, 1653.579 216, 1653.175 216 C 1652.772 216, 1650.880 214.537, 1648.971 212.748 C 1647.062 210.959, 1642.912 207.755, 1639.750 205.626 C 1636.588 203.498, 1634 201.361, 1634 200.878 C 1634 200.395, 1633.305 200, 1632.455 200 C 1631.605 200, 1629.784 198.875, 1628.409 197.500 C 1627.034 196.125, 1625.587 195, 1625.194 195 C 1624.800 195, 1622.683 193.434, 1620.489 191.519 C 1618.295 189.605, 1615.923 188.030, 1615.219 188.019 C 1614.514 188.009, 1613.678 187.325, 1613.362 186.500 C 1613.045 185.675, 1612.244 185, 1611.582 185 C 1610.919 185, 1609.462 184.148, 1608.344 183.106 C 1607.227 182.065, 1605.004 180.484, 1603.406 179.594 C 1598.261 176.727, 1596.558 175.544, 1594.362 173.312 C 1593.178 172.108, 1591.938 171.396, 1591.605 171.728 C 1591.272 172.061, 1591 171.782, 1591 171.108 C 1591 170.434, 1590.550 170.160, 1590 170.500 C 1589.450 170.840, 1589 170.710, 1589 170.211 C 1589 169.712, 1587.236 168.508, 1585.079 167.536 C 1582.923 166.563, 1580.236 164.707, 1579.109 163.410 C 1577.982 162.114, 1575.921 160.767, 1574.530 160.418 C 1573.138 160.069, 1572 159.431, 1572 159 C 1572 158.569, 1570.987 157.957, 1569.750 157.640 C 1568.513 157.322, 1566.358 156.036, 1564.963 154.781 C 1563.568 153.527, 1561.970 152.417, 1561.412 152.316 C 1560.396 152.132, 1550.600 145.913, 1548.250 143.960 C 1547.563 143.389, 1547 143.234, 1547 143.616 C 1547 143.997, 1546.100 143.495, 1545 142.500 C 1543.900 141.505, 1542.993 141.097, 1542.985 141.595 C 1542.976 142.093, 1542.639 141.997, 1542.235 141.381 C 1541.831 140.766, 1539.222 139.113, 1536.437 137.709 C 1533.653 136.305, 1530.785 134.446, 1530.065 133.578 C 1529.344 132.710, 1528 132, 1527.078 132 C 1526.155 132, 1524.973 131.591, 1524.450 131.091 C 1523.928 130.591, 1518.775 127.615, 1513 124.479 C 1507.225 121.343, 1502.275 118.422, 1502 117.989 C 1501.725 117.555, 1500.600 117.042, 1499.500 116.850 C 1498.400 116.657, 1497.275 116.275, 1497 116 C 1496.725 115.725, 1490.200 112.376, 1482.500 108.559 C 1474.800 104.741, 1468.169 101.141, 1467.765 100.559 C 1467.361 99.976, 1467.024 99.838, 1467.015 100.252 C 1467.007 100.666, 1465.319 100.103, 1463.265 99.002 C 1461.210 97.901, 1459.147 97, 1458.680 97 C 1458.213 97, 1452.318 94.300, 1445.580 91 C 1438.842 87.700, 1432.581 85, 1431.665 85 C 1430.749 85, 1430 84.580, 1430 84.067 C 1430 83.554, 1428.987 82.851, 1427.750 82.505 C 1425.091 81.760, 1423.200 80.976, 1416.500 77.840 C 1413.750 76.553, 1411.050 75.478, 1410.500 75.451 C 1409.950 75.425, 1407.925 74.685, 1406 73.809 C 1400.514 71.310, 1398.596 70.669, 1397.250 70.886 C 1396.563 70.997, 1396 70.654, 1396 70.123 C 1396 69.593, 1394.552 68.841, 1392.783 68.452 C 1391.013 68.064, 1388.876 67.393, 1388.033 66.963 C 1384.994 65.411, 1375.707 62, 1374.520 62 C 1373.853 62, 1371.898 61.297, 1370.176 60.438 C 1368.453 59.579, 1365.806 58.651, 1364.293 58.377 C 1362.780 58.102, 1361.246 57.398, 1360.883 56.811 C 1360.520 56.224, 1359.723 56.053, 1359.112 56.431 C 1358.500 56.809, 1358 56.716, 1358 56.226 C 1358 55.735, 1357.438 55.316, 1356.750 55.295 C 1356.063 55.274, 1353.187 54.325, 1350.359 53.186 C 1347.532 52.047, 1344.944 51.389, 1344.609 51.724 C 1344.274 52.059, 1344 51.782, 1344 51.108 C 1344 50.434, 1343.627 50.113, 1343.171 50.394 C 1342.414 50.862, 1334.619 48.901, 1331 47.333 C 1330.175 46.975, 1329.162 46.754, 1328.750 46.841 C 1328.338 46.929, 1328 46.475, 1328 45.833 C 1328 45.192, 1327.734 44.933, 1327.409 45.258 C 1327.083 45.583, 1324.721 45.184, 1322.159 44.370 C 1319.596 43.557, 1316.150 42.653, 1314.500 42.361 C 1312.850 42.069, 1308.638 40.693, 1305.140 39.303 C 1301.642 37.912, 1297.592 36.719, 1296.140 36.650 C 1294.688 36.581, 1293.275 36.255, 1293 35.925 C 1292.570 35.409, 1284.678 33.427, 1279.982 32.655 C 1279.148 32.518, 1277.885 32.047, 1277.175 31.608 C 1276.466 31.170, 1274.674 30.620, 1273.193 30.386 C 1271.712 30.152, 1269.825 29.819, 1269 29.647 C 1268.175 29.475, 1265.578 28.975, 1263.228 28.536 C 1260.878 28.097, 1258.713 27.345, 1258.417 26.865 C 1258.120 26.385, 1256.780 26.268, 1255.439 26.605 C 1254.097 26.941, 1253 26.777, 1253 26.238 C 1253 25.700, 1251.088 25.006, 1248.750 24.696 C 1244.676 24.155, 1242.486 23.731, 1237 22.419 C 1234.167 21.741, 1233.443 21.610, 1226.500 20.516 C 1223.750 20.082, 1220.375 19.286, 1219 18.746 C 1215.892 17.525, 1211.497 16.788, 1207.250 16.775 C 1205.463 16.769, 1203.998 16.480, 1203.996 16.132 C 1203.993 15.784, 1202.531 15.396, 1200.746 15.269 C 1197.696 15.052, 1193.500 14.324, 1193.500 14.013 C 1193.500 13.935, 1192.150 13.711, 1190.500 13.513 C 1188.850 13.316, 1185.475 12.754, 1183 12.264 C 1180.525 11.775, 1177.263 11.446, 1175.750 11.533 C 1174.237 11.620, 1173 11.404, 1173 11.054 C 1173 10.703, 1171.763 10.404, 1170.250 10.388 C 1168.737 10.373, 1165.700 10.029, 1163.500 9.623 C 1161.300 9.217, 1158.150 8.745, 1156.500 8.576 C 1154.850 8.406, 1153.500 8.177, 1153.500 8.068 C 1153.500 7.697, 1142.520 6.801, 1138.250 6.824 C 1135.912 6.837, 1134 6.453, 1134 5.970 C 1134 5.488, 1132.088 5.118, 1129.750 5.148 C 1127.412 5.178, 1123.025 4.937, 1120 4.613 C 1116.975 4.289, 1112.925 3.853, 1111 3.644 C 1100.673 2.526, 1083.495 1.548, 1076.250 1.667 C 1071.713 1.741, 1068 1.501, 1068 1.134 C 1068 0.767, 1048.200 0.470, 1024 0.475 C 999.800 0.479, 980 0.741, 980 1.057 M 1002.835 455.464 C 1002.651 455.629, 1000.475 456.028, 998 456.350 C 995.525 456.672, 992.150 457.216, 990.500 457.558 C 985.288 458.640, 982.640 459.028, 977.500 459.465 C 971.550 459.970, 964.797 461.304, 956.500 463.613 C 955.400 463.919, 953.375 464.296, 952 464.450 C 946.408 465.078, 942 466.277, 942 467.170 C 942 467.692, 941.550 467.840, 941 467.500 C 940.450 467.160, 939.438 467.239, 938.750 467.676 C 938.063 468.112, 936.825 468.515, 936 468.571 C 935.175 468.627, 933.712 468.971, 932.750 469.336 C 928.303 471.023, 927.377 471.324, 925.578 471.670 C 924.522 471.873, 923.079 472.520, 922.372 473.106 C 921.666 473.692, 920.618 473.882, 920.044 473.527 C 919.470 473.172, 919 473.344, 919 473.910 C 919 474.475, 918.384 474.701, 917.631 474.412 C 916.878 474.123, 914.710 474.758, 912.814 475.824 C 910.917 476.889, 907.820 478.092, 905.932 478.496 C 904.045 478.900, 901.938 479.684, 901.250 480.238 C 900.563 480.792, 900 480.934, 900 480.554 C 900 480.175, 898.580 480.875, 896.845 482.110 C 895.110 483.346, 892.972 484.438, 892.095 484.537 C 891.218 484.636, 889.233 485.231, 887.685 485.859 C 886.137 486.486, 884.487 487, 884.018 487 C 883.550 487, 883.017 487.375, 882.833 487.832 C 882.424 488.855, 871.260 494, 869.451 494 C 868.731 494, 867.548 494.568, 866.821 495.263 C 864.530 497.453, 860.629 499.654, 856.838 500.897 C 854.825 501.557, 852.926 502.750, 852.620 503.548 C 852.313 504.347, 851.365 505, 850.512 505 C 849.658 505, 847.282 506.060, 845.230 507.355 C 843.179 508.650, 841.275 509.680, 841 509.644 C 840.725 509.608, 839.226 510.686, 837.670 512.039 C 836.113 513.393, 834.538 514.511, 834.170 514.525 C 833.072 514.565, 822.619 521.524, 820.554 523.589 C 819.503 524.640, 818.354 525.500, 818 525.500 C 817.646 525.500, 816.570 526.288, 815.607 527.250 C 814.645 528.212, 813.474 529, 813.005 529 C 812.537 529, 810.804 530.350, 809.154 532 C 807.504 533.650, 805.444 535, 804.577 535 C 803.710 535, 803 535.384, 803 535.852 C 803 536.321, 800.188 538.868, 796.750 541.511 C 793.313 544.154, 788.849 548.007, 786.832 550.073 C 784.814 552.140, 782.976 553.643, 782.747 553.413 C 782.135 552.801, 764 571.689, 764 572.939 C 764 573.522, 763.378 574, 762.617 574 C 761.856 574, 758.679 577.038, 755.556 580.750 C 752.433 584.462, 748.271 589.300, 746.307 591.500 C 744.343 593.700, 742.273 596.513, 741.708 597.750 C 741.142 598.987, 740.076 600, 739.339 600 C 738.603 600, 738 600.675, 738 601.500 C 738 602.325, 737.540 603, 736.979 603 C 736.417 603, 735.410 604.237, 734.740 605.750 C 734.071 607.263, 733.068 609.047, 732.512 609.715 C 731.955 610.384, 730.938 611.602, 730.250 612.423 C 729.563 613.244, 729 614.322, 729 614.818 C 729 615.314, 727.902 616.544, 726.560 617.552 C 725.218 618.560, 724.342 619.744, 724.614 620.184 C 724.885 620.624, 723.950 622.141, 722.535 623.556 C 721.120 624.971, 720.224 626.553, 720.544 627.072 C 720.865 627.590, 720.426 628.283, 719.569 628.612 C 718.712 628.941, 718.231 629.565, 718.500 630 C 718.769 630.435, 718.288 631.059, 717.431 631.388 C 716.574 631.717, 716.118 632.382, 716.418 632.867 C 716.717 633.352, 715.867 634.930, 714.529 636.374 C 713.191 637.818, 712.317 639, 712.587 639 C 712.857 639, 712.176 639.968, 711.074 641.151 C 709.971 642.335, 709.286 643.654, 709.551 644.082 C 709.816 644.511, 708.884 646.101, 707.480 647.616 C 706.076 649.131, 705.133 650.903, 705.383 651.555 C 705.633 652.208, 704.472 654.397, 702.804 656.422 C 701.135 658.446, 700.040 660.374, 700.372 660.705 C 700.994 661.327, 697.555 667.494, 695.287 669.821 C 694.579 670.548, 694 671.925, 694 672.880 C 694 673.836, 693.339 675.491, 692.532 676.559 C 691.724 677.626, 691.049 679.475, 691.032 680.667 C 691.014 681.858, 690.525 682.992, 689.946 683.185 C 689.366 683.378, 688.779 684.203, 688.641 685.018 C 688.503 685.833, 687.628 687.940, 686.695 689.700 C 685.763 691.461, 684.998 693.486, 684.996 694.200 C 684.994 694.915, 683.867 697.717, 682.492 700.426 C 681.118 703.136, 680.065 705.836, 680.152 706.426 C 680.239 707.017, 679.085 710.170, 677.587 713.434 C 676.089 716.697, 675.076 720.184, 675.338 721.183 C 675.599 722.181, 675.404 723.250, 674.906 723.558 C 674.408 723.866, 674 725.216, 674 726.559 C 674 727.902, 673.550 729, 673 729 C 672.450 729, 672 730.098, 672 731.441 C 672 732.784, 671.519 734.179, 670.932 734.542 C 670.344 734.905, 670.092 735.798, 670.372 736.527 C 670.651 737.255, 670.374 739.572, 669.755 741.675 C 669.136 743.779, 668.544 745.837, 668.440 746.250 C 668.335 746.663, 668.159 747.112, 668.048 747.250 C 667.738 747.635, 667.141 750.147, 666.445 754 C 666.097 755.925, 665.349 758.063, 664.784 758.750 C 664.064 759.625, 664.110 760, 664.937 760 C 665.586 760, 665.841 760.448, 665.502 760.996 C 664.803 762.129, 664.145 764.978, 663.458 769.858 C 663.197 771.705, 662.765 773.572, 662.496 774.007 C 661.888 774.990, 660.726 782.802, 660.786 785.500 C 660.810 786.600, 660.424 790.425, 659.928 794 C 658.034 807.634, 657.532 817.246, 657.523 840 C 657.513 863.616, 659.198 911.500, 660.039 911.500 C 660.138 911.500, 660.341 913.750, 660.489 916.500 C 660.790 922.087, 661.469 926.873, 663.114 935 C 663.727 938.025, 664.267 942.188, 664.315 944.250 C 664.363 946.313, 664.762 948, 665.201 948 C 665.641 948, 665.916 948.337, 665.812 948.750 C 665.709 949.163, 666.018 951.525, 666.500 954 C 666.982 956.475, 667.275 958.885, 667.153 959.355 C 667.030 959.826, 667.337 960.726, 667.835 961.355 C 668.908 962.714, 670.440 969.898, 670.086 971.914 C 669.949 972.691, 670.268 974.266, 670.794 975.414 C 673.114 980.472, 674 983.256, 674 985.488 C 674 986.805, 674.457 988.165, 675.016 988.510 C 675.575 988.856, 675.774 989.557, 675.457 990.069 C 675.141 990.581, 675.233 991.563, 675.662 992.250 C 676.091 992.938, 676.577 994.365, 676.741 995.422 C 676.905 996.478, 677.422 997.828, 677.890 998.422 C 678.357 999.015, 679.056 1001.300, 679.444 1003.500 C 679.831 1005.700, 680.774 1008.472, 681.538 1009.660 C 682.303 1010.848, 683.128 1012.873, 683.373 1014.160 C 683.987 1017.390, 688.725 1030.397, 691.612 1036.780 C 692.925 1039.683, 694 1042.539, 694 1043.125 C 694 1043.712, 694.841 1045.386, 695.869 1046.846 C 697.676 1049.412, 699.143 1052.972, 698.818 1054 C 698.731 1054.275, 699.911 1056.483, 701.441 1058.907 C 702.971 1061.330, 704.296 1063.813, 704.386 1064.424 C 704.476 1065.034, 705.550 1067.154, 706.774 1069.135 C 707.998 1071.116, 709 1073.029, 709 1073.388 C 709 1073.746, 710.217 1075.943, 711.704 1078.270 C 713.191 1080.596, 714.507 1083.102, 714.628 1083.838 C 714.749 1084.573, 715.505 1085.923, 716.308 1086.838 C 717.110 1087.752, 718.740 1090.434, 719.929 1092.799 C 721.118 1095.163, 722.742 1097.348, 723.539 1097.654 C 724.336 1097.959, 724.740 1098.612, 724.435 1099.105 C 724.131 1099.597, 724.359 1100, 724.941 1100 C 725.523 1100, 726 1100.675, 726 1101.500 C 726 1102.325, 726.441 1103, 726.981 1103 C 727.520 1103, 728.244 1104.125, 728.589 1105.500 C 728.934 1106.875, 729.645 1108, 730.167 1108 C 730.690 1108, 730.891 1108.368, 730.613 1108.818 C 730.334 1109.268, 731.208 1110.823, 732.554 1112.274 C 733.899 1113.725, 735 1115.198, 735 1115.546 C 735 1115.895, 736.237 1117.491, 737.750 1119.093 C 739.263 1120.696, 740.500 1122.416, 740.500 1122.915 C 740.500 1123.787, 745.149 1130.001, 747.750 1132.605 C 748.438 1133.294, 749 1134.317, 749 1134.879 C 749 1135.441, 749.628 1136.260, 750.397 1136.700 C 751.165 1137.140, 752.784 1139.188, 753.995 1141.250 C 755.207 1143.313, 756.603 1145, 757.099 1145 C 757.594 1145, 758 1145.675, 758 1146.500 C 758 1147.325, 758.525 1148, 759.167 1148 C 759.808 1148, 760.036 1148.297, 759.673 1148.660 C 759.310 1149.023, 759.910 1149.949, 761.006 1150.717 C 762.103 1151.485, 763 1152.763, 763 1153.557 C 763 1154.351, 763.450 1155, 764 1155 C 764.550 1155, 765 1155.480, 765 1156.067 C 765 1156.653, 766.219 1158.732, 767.709 1160.685 C 769.198 1162.638, 770.519 1164.925, 770.642 1165.768 C 770.766 1166.610, 771.256 1167.570, 771.732 1167.900 C 773.209 1168.925, 780.616 1181.864, 786.102 1193 C 787.863 1196.575, 789.688 1199.651, 790.158 1199.835 C 790.628 1200.020, 790.749 1200.597, 790.427 1201.118 C 790.105 1201.639, 790.823 1203.729, 792.022 1205.762 C 793.222 1207.795, 794.346 1210.200, 794.520 1211.106 C 794.695 1212.012, 795.860 1214.946, 797.109 1217.627 C 798.358 1220.307, 799.549 1223.617, 799.755 1224.981 C 799.961 1226.346, 800.589 1227.746, 801.151 1228.093 C 801.712 1228.440, 802.063 1228.898, 801.930 1229.112 C 801.437 1229.907, 804.435 1237, 805.264 1237 C 805.738 1237, 805.993 1237.788, 805.830 1238.750 C 805.668 1239.713, 806.509 1242.368, 807.700 1244.651 C 808.890 1246.934, 809.606 1249.061, 809.290 1249.377 C 808.974 1249.693, 809.279 1250.632, 809.969 1251.463 C 810.659 1252.294, 810.968 1253.641, 810.656 1254.455 C 810.343 1255.270, 810.518 1256.202, 811.044 1256.527 C 811.570 1256.852, 812.003 1258.104, 812.006 1259.309 C 812.010 1260.514, 812.682 1262.784, 813.501 1264.354 C 814.320 1265.924, 814.759 1267.580, 814.478 1268.035 C 814.197 1268.490, 814.430 1269.147, 814.995 1269.497 C 815.560 1269.846, 815.977 1271.339, 815.923 1272.816 C 815.829 1275.367, 816.184 1277.678, 817.714 1284.500 C 818.084 1286.150, 818.440 1288.175, 818.505 1289 C 818.569 1289.825, 818.965 1293.425, 819.384 1297 C 820.861 1309.590, 820.914 1310.521, 820.210 1311.644 C 819.265 1313.152, 811.944 1314.109, 798.209 1314.521 C 791.999 1314.707, 785.699 1315.104, 784.209 1315.403 C 782.719 1315.702, 778.800 1316.179, 775.500 1316.464 C 772.200 1316.748, 766.350 1317.284, 762.500 1317.653 C 758.650 1318.023, 752.463 1318.365, 748.750 1318.413 C 745.038 1318.461, 742 1318.846, 742 1319.268 C 742 1319.691, 739.638 1319.935, 736.750 1319.809 C 731.577 1319.585, 711.397 1320.839, 707.500 1321.627 C 703.306 1322.475, 692.221 1323.365, 685.500 1323.393 C 681.650 1323.409, 678.163 1323.890, 677.750 1324.461 C 677.254 1325.148, 676.703 1325.040, 676.125 1324.143 C 675.583 1323.303, 675.013 1323.170, 674.628 1323.793 C 674.286 1324.347, 672.371 1324.800, 670.374 1324.800 C 668.376 1324.800, 666.462 1325.250, 666.121 1325.800 C 665.779 1326.350, 663.787 1327.071, 661.694 1327.403 C 656.970 1328.152, 652.424 1330.443, 651.080 1332.750 C 650.519 1333.712, 650.047 1334.124, 650.030 1333.665 C 649.988 1332.513, 640.710 1340.003, 637.597 1343.702 C 636.200 1345.363, 635.343 1347.010, 635.695 1347.361 C 636.046 1347.713, 635.808 1348, 635.167 1348 C 634.525 1348, 634 1348.533, 634 1349.186 C 634 1349.838, 633.088 1351.342, 631.973 1352.529 C 630.858 1353.716, 629.764 1355.628, 629.543 1356.779 C 629.321 1357.929, 628.638 1359.809, 628.024 1360.956 C 627.410 1362.103, 627.163 1363.454, 627.475 1363.959 C 627.787 1364.464, 627.430 1365.242, 626.682 1365.689 C 624.706 1366.868, 623.190 1372.041, 623.573 1376.304 C 623.838 1379.259, 623.560 1380, 622.188 1380 C 621.244 1380, 618.003 1380.951, 614.986 1382.112 C 611.969 1383.274, 608.600 1384.299, 607.500 1384.389 C 606.400 1384.480, 604.487 1385.120, 603.250 1385.812 C 602.013 1386.504, 601 1386.849, 601 1386.580 C 601 1386.310, 599.194 1386.726, 596.986 1387.505 C 594.778 1388.284, 592.761 1388.960, 592.502 1389.007 C 592.244 1389.054, 590.563 1389.620, 588.766 1390.264 C 586.970 1390.908, 585.163 1391.337, 584.750 1391.218 C 584.337 1391.098, 584 1391.354, 584 1391.787 C 584 1392.220, 582.600 1392.681, 580.889 1392.812 C 579.178 1392.942, 576.815 1393.582, 575.639 1394.234 C 574.462 1394.886, 572.938 1395.305, 572.250 1395.166 C 571.562 1395.026, 571 1395.286, 571 1395.743 C 571 1396.200, 570.028 1396.648, 568.840 1396.737 C 567.652 1396.827, 566.414 1397.260, 566.090 1397.700 C 565.507 1398.490, 564.526 1398.815, 560.383 1399.593 C 559.219 1399.812, 556.688 1400.650, 554.760 1401.456 C 552.832 1402.261, 550.972 1402.639, 550.627 1402.294 C 550.282 1401.949, 550 1402.267, 550 1403 C 550 1403.733, 549.704 1404.037, 549.342 1403.675 C 548.980 1403.313, 548.080 1403.519, 547.342 1404.131 C 546.604 1404.744, 546 1404.971, 546 1404.637 C 546 1404.303, 543.799 1404.897, 541.109 1405.957 C 538.419 1407.017, 535.944 1407.611, 535.609 1407.276 C 535.274 1406.941, 535 1407.267, 535 1408 C 535 1408.733, 534.704 1409.037, 534.342 1408.675 C 533.980 1408.313, 533.080 1408.519, 532.342 1409.131 C 531.604 1409.744, 531 1409.971, 531 1409.637 C 531 1409.303, 528.799 1409.897, 526.109 1410.957 C 523.419 1412.017, 520.944 1412.611, 520.609 1412.276 C 520.274 1411.941, 520 1412.267, 520 1413 C 520 1413.733, 519.704 1414.037, 519.342 1413.675 C 518.980 1413.313, 518.080 1413.519, 517.342 1414.131 C 516.604 1414.744, 516 1414.971, 516 1414.637 C 516 1414.303, 513.799 1414.897, 511.109 1415.957 C 508.419 1417.017, 505.944 1417.611, 505.609 1417.276 C 505.274 1416.941, 505 1417.192, 505 1417.833 C 505 1418.475, 504.663 1418.947, 504.250 1418.882 C 503.837 1418.816, 503.275 1418.853, 503 1418.964 C 502.725 1419.074, 501.158 1419.382, 499.519 1419.647 C 497.879 1419.913, 496.304 1420.439, 496.019 1420.815 C 495.733 1421.192, 494.600 1421.657, 493.500 1421.850 C 492.400 1422.042, 491.275 1422.537, 491 1422.948 C 490.725 1423.360, 489.487 1423.615, 488.250 1423.516 C 487.012 1423.416, 486 1423.736, 486 1424.226 C 486 1424.717, 485.550 1424.840, 485 1424.500 C 484.450 1424.160, 484 1424.344, 484 1424.910 C 484 1425.475, 483.325 1425.678, 482.500 1425.362 C 481.675 1425.045, 481 1425.188, 481 1425.680 C 481 1426.172, 480.156 1426.638, 479.125 1426.716 C 476.771 1426.893, 462.436 1431.777, 458.721 1433.667 C 457.192 1434.445, 455.504 1434.812, 454.971 1434.482 C 454.437 1434.152, 454 1434.385, 454 1435 C 454 1435.615, 453.581 1435.859, 453.069 1435.543 C 452.557 1435.226, 451.851 1435.432, 451.500 1436 C 451.149 1436.568, 450.443 1436.774, 449.931 1436.457 C 449.419 1436.141, 449 1436.434, 449 1437.108 C 449 1437.782, 448.704 1438.037, 448.342 1437.675 C 447.980 1437.313, 447.157 1437.454, 446.514 1437.989 C 445.870 1438.523, 444.478 1439.122, 443.422 1439.320 C 436.297 1440.655, 434 1441.326, 434 1442.073 C 434 1442.540, 432.177 1443.414, 429.949 1444.014 C 427.720 1444.614, 425.647 1445.756, 425.342 1446.552 C 425.036 1447.349, 423.920 1448, 422.862 1448 C 421.803 1448, 420.678 1448.675, 420.362 1449.500 C 420.045 1450.325, 419.215 1451, 418.517 1451 C 417.050 1451, 409.698 1459.139, 410.178 1460.231 C 410.355 1460.633, 409.480 1461.676, 408.233 1462.549 C 406.987 1463.422, 406.226 1464.556, 406.542 1465.068 C 406.859 1465.581, 406.748 1466, 406.295 1466 C 405.531 1466, 400.851 1474.974, 400.343 1477.413 C 400.219 1478.011, 399.850 1479.625, 399.523 1481 C 398.185 1486.632, 397.802 1489.770, 397.811 1495 C 397.826 1503.473, 398.418 1508.999, 399.309 1509 C 399.754 1509, 399.871 1509.399, 399.570 1509.887 C 398.911 1510.952, 405.528 1524.669, 408.066 1527.500 C 409.052 1528.600, 410.968 1530.710, 412.323 1532.189 C 413.679 1533.669, 414.577 1535.090, 414.319 1535.348 C 414.060 1535.606, 414.760 1536.106, 415.873 1536.460 C 416.987 1536.813, 418.147 1537.888, 418.452 1538.849 C 418.757 1539.809, 421.501 1543.274, 424.550 1546.547 C 427.600 1549.821, 431.761 1554.439, 433.797 1556.810 C 446.827 1571.977, 463.914 1589.266, 484.500 1608.114 C 491.100 1614.156, 498.075 1620.616, 500 1622.468 C 501.925 1624.320, 506.425 1628.142, 510 1630.961 C 518.598 1637.743, 523.687 1642.006, 526.457 1644.750 C 527.707 1645.987, 529.218 1647, 529.815 1647 C 530.412 1647, 531.260 1647.562, 531.700 1648.250 C 532.690 1649.797, 538.553 1654.322, 546.644 1659.783 C 550.022 1662.064, 553.485 1664.628, 554.339 1665.482 C 556.543 1667.686, 564.901 1674, 565.615 1674 C 565.943 1674, 567.917 1675.350, 570 1677 C 572.083 1678.650, 574.120 1680, 574.527 1680 C 574.933 1680, 576 1680.787, 576.897 1681.750 C 578.847 1683.841, 581.846 1685.838, 584.250 1686.646 C 585.212 1686.969, 586 1687.600, 586 1688.049 C 586 1688.498, 586.978 1689.176, 588.173 1689.555 C 589.368 1689.934, 591.281 1691.119, 592.423 1692.187 C 593.565 1693.255, 596.853 1695.478, 599.729 1697.126 C 602.605 1698.774, 605.219 1700.545, 605.538 1701.061 C 605.857 1701.578, 606.786 1702, 607.603 1702 C 608.419 1702, 610.301 1703.125, 611.783 1704.500 C 613.266 1705.875, 615.286 1707, 616.271 1707 C 617.257 1707, 618.322 1707.675, 618.638 1708.500 C 618.955 1709.325, 620.066 1710, 621.107 1710 C 622.148 1710, 623 1710.395, 623 1710.879 C 623 1711.362, 624.350 1712.317, 626 1713 C 627.650 1713.683, 629 1714.665, 629 1715.180 C 629 1715.696, 629.412 1715.864, 629.915 1715.553 C 630.418 1715.242, 630.980 1715.328, 631.165 1715.744 C 631.349 1716.160, 634.200 1717.895, 637.500 1719.600 C 640.800 1721.305, 645.975 1724.034, 649 1725.665 C 652.025 1727.295, 657.538 1730.268, 661.250 1732.271 C 664.963 1734.273, 668 1735.676, 668 1735.388 C 668 1735.100, 669.305 1735.793, 670.900 1736.929 C 672.495 1738.065, 676.658 1740.283, 680.150 1741.859 C 690.904 1746.710, 696.209 1749.142, 703.886 1752.742 C 707.948 1754.647, 712.346 1756.324, 713.658 1756.468 C 714.970 1756.612, 716.822 1757.431, 717.772 1758.287 C 718.722 1759.143, 720.850 1760.164, 722.500 1760.556 C 724.150 1760.947, 728.200 1762.510, 731.500 1764.029 C 736.961 1766.544, 754.086 1772.947, 756.500 1773.378 C 757.050 1773.476, 758.116 1773.940, 758.868 1774.410 C 759.620 1774.880, 761.645 1775.616, 763.368 1776.046 C 765.091 1776.475, 768.929 1777.752, 771.898 1778.881 C 774.866 1780.011, 777.679 1780.698, 778.148 1780.409 C 778.616 1780.119, 779 1780.407, 779 1781.048 C 779 1781.689, 779.605 1781.982, 780.345 1781.698 C 781.085 1781.414, 783.672 1782.086, 786.095 1783.192 C 788.518 1784.298, 792.006 1785.363, 793.846 1785.559 C 795.687 1785.755, 797.712 1786.335, 798.346 1786.849 C 798.981 1787.363, 802.087 1788.314, 805.250 1788.963 C 808.413 1789.611, 811 1790.612, 811 1791.188 C 811 1791.763, 811.872 1792.005, 812.937 1791.727 C 814.002 1791.448, 817.804 1792.244, 821.385 1793.495 C 824.966 1794.747, 828.134 1795.533, 828.424 1795.243 C 828.714 1794.952, 829.632 1795.279, 830.463 1795.969 C 831.294 1796.659, 832.641 1796.968, 833.455 1796.656 C 834.270 1796.343, 835.164 1796.457, 835.444 1796.909 C 835.991 1797.794, 847.371 1800.415, 850.250 1800.319 C 851.212 1800.287, 852 1800.649, 852 1801.124 C 852 1801.599, 853.013 1801.823, 854.250 1801.621 C 855.487 1801.420, 857.259 1801.648, 858.187 1802.129 C 859.115 1802.610, 861.140 1803.168, 862.687 1803.370 C 864.234 1803.572, 866.273 1804.064, 867.218 1804.463 C 868.163 1804.863, 870.750 1805.259, 872.967 1805.345 C 875.184 1805.430, 876.999 1805.810, 876.999 1806.188 C 877 1806.566, 877.788 1806.840, 878.750 1806.795 C 879.712 1806.751, 883.425 1807.282, 887 1807.974 C 890.575 1808.667, 894.850 1809.425, 896.500 1809.659 C 898.150 1809.893, 900.175 1810.224, 901 1810.393 C 905.817 1811.385, 910.320 1811.988, 916.796 1812.510 C 920.809 1812.833, 924.658 1813.315, 925.351 1813.581 C 926.043 1813.847, 928.418 1814.199, 930.628 1814.364 C 932.838 1814.528, 935.063 1814.911, 935.573 1815.214 C 936.083 1815.518, 938.075 1815.671, 940 1815.554 C 941.925 1815.438, 943.950 1815.594, 944.500 1815.901 C 945.050 1816.208, 947.750 1816.523, 950.500 1816.601 C 953.250 1816.680, 959.550 1817.080, 964.500 1817.490 C 980.493 1818.817, 991.898 1819.138, 1024.500 1819.179 C 1054.960 1819.217, 1062.408 1818.998, 1082 1817.488 C 1086.675 1817.127, 1092.978 1816.739, 1096.006 1816.626 C 1099.034 1816.513, 1102.042 1816.092, 1102.689 1815.692 C 1103.337 1815.292, 1105.553 1815.174, 1107.614 1815.429 C 1109.676 1815.685, 1111.816 1815.613, 1112.371 1815.270 C 1112.926 1814.927, 1114.803 1814.552, 1116.541 1814.436 C 1118.279 1814.320, 1121.006 1813.963, 1122.601 1813.643 C 1126.791 1812.804, 1133.738 1811.892, 1138.963 1811.496 C 1141.458 1811.307, 1144.850 1810.885, 1146.500 1810.559 C 1148.150 1810.233, 1150.625 1809.787, 1152 1809.568 C 1153.375 1809.349, 1158.100 1808.596, 1162.500 1807.894 C 1166.900 1807.192, 1170.725 1806.366, 1171 1806.059 C 1171.275 1805.752, 1173.284 1805.399, 1175.464 1805.275 C 1177.644 1805.151, 1180.119 1804.755, 1180.964 1804.393 C 1181.809 1804.032, 1183.766 1803.572, 1185.313 1803.370 C 1186.860 1803.168, 1188.885 1802.610, 1189.813 1802.129 C 1190.741 1801.648, 1192.513 1801.420, 1193.750 1801.621 C 1194.987 1801.823, 1196 1801.554, 1196 1801.025 C 1196 1800.496, 1196.681 1800.324, 1197.513 1800.643 C 1198.345 1800.963, 1199.582 1800.819, 1200.263 1800.324 C 1200.943 1799.829, 1202.850 1799.285, 1204.500 1799.115 C 1206.150 1798.945, 1207.950 1798.464, 1208.500 1798.046 C 1209.050 1797.629, 1212.425 1796.748, 1216 1796.090 C 1219.575 1795.431, 1223.897 1794.454, 1225.604 1793.917 C 1229.212 1792.783, 1232.601 1791.976, 1235.693 1791.515 C 1236.899 1791.336, 1238.360 1790.896, 1238.939 1790.538 C 1239.518 1790.180, 1240.782 1789.700, 1241.746 1789.472 C 1250.319 1787.443, 1252.579 1786.764, 1253.605 1785.913 C 1254.257 1785.372, 1255.174 1785.029, 1255.645 1785.151 C 1256.115 1785.272, 1258.300 1784.572, 1260.500 1783.596 C 1262.700 1782.619, 1265.512 1781.748, 1266.749 1781.660 C 1267.986 1781.572, 1268.999 1781.202, 1268.999 1780.838 C 1269 1780.475, 1269.787 1780.304, 1270.750 1780.459 C 1271.713 1780.614, 1273.400 1780.258, 1274.500 1779.668 C 1275.600 1779.079, 1276.950 1778.493, 1277.500 1778.368 C 1279.006 1778.024, 1285.169 1775.861, 1288 1774.683 C 1289.375 1774.111, 1290.725 1773.592, 1291 1773.530 C 1293.060 1773.067, 1302.890 1769.525, 1304.500 1768.666 C 1305.600 1768.078, 1307.350 1767.457, 1308.388 1767.284 C 1309.426 1767.112, 1313.026 1765.683, 1316.388 1764.109 C 1319.750 1762.535, 1323.850 1760.931, 1325.500 1760.545 C 1327.150 1760.160, 1329.274 1759.147, 1330.220 1758.294 C 1331.166 1757.442, 1333.368 1756.578, 1335.114 1756.375 C 1336.860 1756.172, 1338.799 1755.581, 1339.424 1755.063 C 1340.049 1754.545, 1347.521 1750.986, 1356.030 1747.154 C 1374.401 1738.882, 1401.198 1725.243, 1402.235 1723.638 C 1402.639 1723.012, 1402.976 1722.907, 1402.985 1723.405 C 1402.993 1723.903, 1403.787 1723.656, 1404.750 1722.856 C 1405.713 1722.056, 1409.200 1720.085, 1412.500 1718.476 C 1415.800 1716.867, 1419.361 1714.762, 1420.413 1713.799 C 1421.465 1712.836, 1423.828 1711.552, 1425.663 1710.946 C 1427.498 1710.340, 1429 1709.542, 1429 1709.171 C 1429 1708.800, 1431.025 1707.422, 1433.500 1706.109 C 1435.975 1704.796, 1438 1703.335, 1438 1702.861 C 1438 1702.387, 1438.815 1702, 1439.811 1702 C 1440.808 1702, 1442.495 1701.212, 1443.561 1700.250 C 1444.628 1699.287, 1447.193 1697.607, 1449.263 1696.516 C 1451.333 1695.424, 1454.126 1693.512, 1455.469 1692.266 C 1456.813 1691.020, 1458.382 1690, 1458.956 1690 C 1459.530 1690, 1460 1689.523, 1460 1688.941 C 1460 1688.359, 1460.450 1688.160, 1461 1688.500 C 1461.550 1688.840, 1462 1688.641, 1462 1688.059 C 1462 1687.477, 1462.675 1687, 1463.500 1687 C 1464.325 1687, 1465 1686.523, 1465 1685.941 C 1465 1685.359, 1465.450 1685.160, 1466 1685.500 C 1466.550 1685.840, 1467 1685.641, 1467 1685.059 C 1467 1684.477, 1467.510 1684, 1468.133 1684 C 1468.756 1684, 1470 1683.212, 1470.897 1682.250 C 1472.847 1680.159, 1475.846 1678.162, 1478.250 1677.354 C 1479.213 1677.031, 1480 1676.445, 1480 1676.052 C 1480 1675.659, 1482.138 1673.950, 1484.750 1672.255 C 1487.362 1670.560, 1490.850 1667.977, 1492.500 1666.516 C 1494.150 1665.055, 1498.200 1662.015, 1501.500 1659.762 C 1504.800 1657.509, 1508.654 1654.728, 1510.064 1653.582 C 1511.474 1652.437, 1513.905 1650.600, 1515.466 1649.500 C 1517.027 1648.400, 1519.031 1646.825, 1519.920 1646 C 1520.808 1645.175, 1523.552 1642.932, 1526.018 1641.015 C 1528.483 1639.099, 1530.950 1637.028, 1531.500 1636.414 C 1532.050 1635.800, 1535.773 1632.696, 1539.774 1629.517 C 1543.775 1626.337, 1547.375 1623.232, 1547.774 1622.618 C 1548.173 1622.003, 1551.628 1618.800, 1555.452 1615.500 C 1572.261 1600.992, 1596.590 1576.663, 1614 1556.951 C 1617.575 1552.904, 1621.287 1548.909, 1622.250 1548.074 C 1623.213 1547.239, 1624 1546.184, 1624 1545.730 C 1624 1545.276, 1625.125 1543.862, 1626.500 1542.588 C 1627.875 1541.313, 1629 1539.836, 1629 1539.304 C 1629 1538.773, 1630.124 1537.736, 1631.498 1537.001 C 1632.873 1536.265, 1633.820 1535.487, 1633.605 1535.271 C 1633.389 1535.055, 1634.238 1533.730, 1635.492 1532.326 C 1639.805 1527.498, 1640.852 1526.146, 1642.074 1523.826 C 1642.748 1522.547, 1643.570 1521.275, 1643.901 1521 C 1644.853 1520.210, 1647 1515.695, 1647.469 1513.500 C 1650.301 1500.238, 1650.795 1496.558, 1650.511 1490.852 C 1650.328 1487.195, 1649.773 1483.370, 1649.276 1482.352 C 1648.780 1481.333, 1648.453 1479.491, 1648.550 1478.259 C 1648.647 1477.026, 1648.118 1475.513, 1647.374 1474.895 C 1646.630 1474.278, 1646.237 1473.425, 1646.500 1473 C 1646.763 1472.575, 1646.308 1471.671, 1645.489 1470.991 C 1644.670 1470.311, 1644 1468.711, 1644 1467.434 C 1644 1466.158, 1642.987 1464.404, 1641.750 1463.537 C 1640.513 1462.671, 1639.500 1461.578, 1639.500 1461.109 C 1639.500 1459.858, 1629.735 1450, 1628.496 1450 C 1627.916 1450, 1626.793 1449.100, 1626 1448 C 1625.207 1446.900, 1624.095 1445.990, 1623.529 1445.978 C 1622.963 1445.966, 1620.475 1445.038, 1618 1443.915 C 1615.525 1442.792, 1613.275 1441.858, 1613 1441.838 C 1612.725 1441.819, 1611.774 1441.414, 1610.888 1440.940 C 1610.001 1440.465, 1607.769 1439.812, 1605.929 1439.487 C 1604.088 1439.163, 1602.072 1438.475, 1601.449 1437.958 C 1600.826 1437.440, 1600.020 1437.313, 1599.658 1437.675 C 1599.296 1438.037, 1599 1437.782, 1599 1437.108 C 1599 1436.434, 1598.581 1436.141, 1598.069 1436.457 C 1597.557 1436.774, 1596.851 1436.568, 1596.500 1436 C 1596.149 1435.432, 1595.443 1435.226, 1594.931 1435.543 C 1594.419 1435.859, 1594 1435.738, 1594 1435.273 C 1594 1434.809, 1593.213 1434.369, 1592.250 1434.297 C 1589.660 1434.102, 1587.667 1433.548, 1586.150 1432.601 C 1583.484 1430.937, 1568.685 1426.077, 1567.851 1426.592 C 1567.383 1426.881, 1567 1426.593, 1567 1425.952 C 1567 1425.311, 1566.325 1425.045, 1565.500 1425.362 C 1564.675 1425.678, 1564 1425.475, 1564 1424.910 C 1564 1424.344, 1563.550 1424.160, 1563 1424.500 C 1562.450 1424.840, 1562 1424.717, 1562 1424.226 C 1562 1423.736, 1560.987 1423.416, 1559.750 1423.516 C 1558.513 1423.615, 1557.235 1423.293, 1556.910 1422.798 C 1556.586 1422.304, 1555.348 1421.827, 1554.160 1421.737 C 1552.972 1421.648, 1552 1421.172, 1552 1420.680 C 1552 1420.188, 1551.339 1420.040, 1550.532 1420.349 C 1549.725 1420.659, 1548.794 1420.475, 1548.463 1419.940 C 1548.132 1419.405, 1547.474 1419.207, 1547 1419.500 C 1546.526 1419.793, 1545.851 1419.568, 1545.500 1419 C 1545.149 1418.432, 1544.443 1418.226, 1543.931 1418.543 C 1543.419 1418.859, 1543 1418.566, 1543 1417.892 C 1543 1417.218, 1542.726 1416.941, 1542.391 1417.276 C 1542.056 1417.611, 1539.581 1417.017, 1536.891 1415.957 C 1534.201 1414.897, 1532 1414.303, 1532 1414.637 C 1532 1414.971, 1531.396 1414.744, 1530.658 1414.131 C 1529.920 1413.519, 1529.020 1413.313, 1528.658 1413.675 C 1528.296 1414.037, 1528 1413.733, 1528 1413 C 1528 1412.267, 1527.726 1411.941, 1527.391 1412.276 C 1527.056 1412.611, 1524.581 1412.017, 1521.891 1410.957 C 1519.201 1409.897, 1517 1409.303, 1517 1409.637 C 1517 1409.971, 1516.396 1409.744, 1515.658 1409.131 C 1514.920 1408.519, 1514.020 1408.313, 1513.658 1408.675 C 1513.296 1409.037, 1513 1408.733, 1513 1408 C 1513 1407.267, 1512.726 1406.941, 1512.391 1407.276 C 1512.056 1407.611, 1509.581 1407.017, 1506.891 1405.957 C 1504.201 1404.897, 1502 1404.303, 1502 1404.637 C 1502 1404.971, 1501.396 1404.744, 1500.658 1404.131 C 1499.920 1403.519, 1499.020 1403.313, 1498.658 1403.675 C 1498.296 1404.037, 1498 1403.733, 1498 1403 C 1498 1402.267, 1497.718 1401.949, 1497.373 1402.294 C 1497.028 1402.639, 1495.168 1402.261, 1493.240 1401.456 C 1491.312 1400.650, 1488.781 1399.812, 1487.617 1399.593 C 1483.474 1398.815, 1482.493 1398.490, 1481.910 1397.700 C 1481.586 1397.260, 1480.348 1396.827, 1479.160 1396.737 C 1477.972 1396.648, 1477 1396.318, 1477 1396.006 C 1477 1395.310, 1469.279 1392.972, 1466.219 1392.742 C 1464.999 1392.650, 1464 1392.220, 1464 1391.787 C 1464 1391.354, 1463.662 1391.098, 1463.250 1391.218 C 1462.838 1391.337, 1461.030 1390.908, 1459.234 1390.264 C 1457.437 1389.620, 1455.756 1389.054, 1455.498 1389.007 C 1455.239 1388.960, 1453.222 1388.284, 1451.014 1387.505 C 1448.806 1386.726, 1447 1386.346, 1447 1386.659 C 1447 1386.973, 1445.836 1386.467, 1444.413 1385.535 C 1442.991 1384.603, 1441.603 1384.064, 1441.330 1384.337 C 1441.057 1384.610, 1437.835 1383.746, 1434.171 1382.417 C 1430.507 1381.087, 1426.796 1380, 1425.924 1380 C 1424.690 1380, 1424.352 1378.934, 1424.395 1375.168 C 1424.431 1372.004, 1423.786 1369.328, 1422.528 1367.418 C 1421.471 1365.813, 1420.542 1363.671, 1420.463 1362.658 C 1420.385 1361.645, 1419.862 1360.520, 1419.302 1360.158 C 1418.742 1359.796, 1418.398 1358.759, 1418.538 1357.852 C 1418.678 1356.946, 1417.457 1354.584, 1415.824 1352.602 C 1414.191 1350.621, 1413.225 1348.993, 1413.677 1348.985 C 1414.130 1348.976, 1413.825 1348.543, 1413 1348.021 C 1412.175 1347.500, 1411.497 1346.719, 1411.493 1346.286 C 1411.480 1344.857, 1405.587 1338.831, 1400 1334.535 C 1393.619 1329.630, 1391.227 1328.267, 1387.905 1327.646 C 1383.426 1326.808, 1382.501 1326.502, 1381.879 1325.650 C 1381.538 1325.182, 1379.624 1324.800, 1377.626 1324.800 C 1375.629 1324.800, 1373.714 1324.347, 1373.372 1323.793 C 1372.987 1323.170, 1372.417 1323.303, 1371.875 1324.143 C 1371.297 1325.040, 1370.746 1325.148, 1370.250 1324.461 C 1369.838 1323.890, 1366.350 1323.409, 1362.500 1323.393 C 1356.143 1323.367, 1347.420 1322.681, 1339.500 1321.584 C 1332.522 1320.618, 1316.109 1319.545, 1311.250 1319.737 C 1308.362 1319.851, 1306 1319.619, 1306 1319.222 C 1306 1318.825, 1302.962 1318.462, 1299.250 1318.415 C 1295.537 1318.368, 1289.800 1318.044, 1286.500 1317.695 C 1283.200 1317.347, 1277.125 1316.799, 1273 1316.479 C 1268.875 1316.158, 1264.739 1315.673, 1263.809 1315.399 C 1262.879 1315.126, 1256.804 1314.740, 1250.309 1314.541 C 1238.758 1314.187, 1229.276 1313.253, 1227.722 1312.316 C 1226.984 1311.871, 1227.105 1309.889, 1228.653 1297 C 1229.017 1293.975, 1229.397 1290.600, 1229.497 1289.500 C 1229.676 1287.548, 1230.799 1281.505, 1231.728 1277.500 C 1231.983 1276.400, 1232.148 1274.422, 1232.095 1273.104 C 1232.042 1271.786, 1232.410 1270.211, 1232.914 1269.604 C 1233.418 1268.997, 1233.852 1268.158, 1233.878 1267.739 C 1233.937 1266.808, 1236.023 1259.067, 1236.772 1257 C 1237.071 1256.175, 1237.217 1254.904, 1237.097 1254.176 C 1236.977 1253.448, 1237.420 1252.199, 1238.082 1251.402 C 1238.743 1250.604, 1239.013 1249.680, 1238.682 1249.348 C 1238.350 1249.016, 1239.153 1246.820, 1240.467 1244.467 C 1241.780 1242.114, 1242.590 1239.923, 1242.266 1239.599 C 1241.942 1239.275, 1242.903 1236.758, 1244.401 1234.005 C 1245.899 1231.252, 1246.817 1229, 1246.440 1229 C 1246.063 1229, 1246.251 1228.402, 1246.858 1227.672 C 1247.464 1226.941, 1248.110 1225.478, 1248.294 1224.422 C 1248.477 1223.365, 1249.648 1220.307, 1250.895 1217.627 C 1252.142 1214.946, 1253.319 1211.942, 1253.509 1210.951 C 1253.700 1209.960, 1254.528 1208.103, 1255.349 1206.824 C 1256.170 1205.546, 1256.990 1203.600, 1257.171 1202.500 C 1257.352 1201.400, 1257.761 1200.275, 1258.080 1200 C 1258.399 1199.725, 1259.943 1196.800, 1261.511 1193.500 C 1263.079 1190.200, 1265.211 1186.263, 1266.249 1184.750 C 1267.287 1183.237, 1267.827 1182, 1267.449 1182 C 1267.072 1182, 1267.922 1180.481, 1269.338 1178.623 C 1270.755 1176.766, 1271.633 1174.966, 1271.290 1174.623 C 1270.947 1174.281, 1271.123 1174, 1271.681 1174 C 1272.240 1174, 1273.508 1172.200, 1274.500 1170 C 1275.492 1167.800, 1276.760 1166, 1277.319 1166 C 1277.877 1166, 1278.045 1165.712, 1277.693 1165.360 C 1277.341 1165.008, 1278.330 1163.096, 1279.890 1161.110 C 1281.450 1159.125, 1283.486 1156.014, 1284.415 1154.199 C 1285.344 1152.383, 1286.753 1150.648, 1287.547 1150.344 C 1288.340 1150.039, 1288.756 1149.415, 1288.473 1148.956 C 1288.189 1148.497, 1289.011 1147.081, 1290.299 1145.811 C 1291.587 1144.540, 1293.467 1142.150, 1294.478 1140.500 C 1295.488 1138.850, 1296.919 1137.140, 1297.657 1136.700 C 1298.396 1136.260, 1299.015 1135.360, 1299.033 1134.700 C 1299.052 1134.040, 1301.062 1131.295, 1303.500 1128.600 C 1305.938 1125.905, 1307.735 1123.381, 1307.494 1122.990 C 1307.252 1122.599, 1308.380 1120.979, 1309.999 1119.389 C 1311.619 1117.800, 1312.957 1116.130, 1312.972 1115.679 C 1312.987 1115.227, 1313.563 1114.230, 1314.250 1113.463 C 1317.179 1110.197, 1318.042 1109, 1317.468 1109 C 1317.132 1109, 1317.564 1108.293, 1318.429 1107.429 C 1319.293 1106.564, 1320 1105.214, 1320 1104.429 C 1320 1103.643, 1320.450 1103, 1321 1103 C 1321.550 1103, 1322 1102.322, 1322 1101.493 C 1322 1100.665, 1323.110 1099.022, 1324.466 1097.843 C 1325.822 1096.663, 1326.696 1095.316, 1326.407 1094.849 C 1326.118 1094.382, 1326.385 1094, 1327 1094 C 1327.615 1094, 1327.840 1093.550, 1327.500 1093 C 1327.160 1092.450, 1327.359 1092, 1327.941 1092 C 1328.523 1092, 1329 1091.395, 1329 1090.655 C 1329 1089.915, 1329.889 1088.505, 1330.976 1087.521 C 1332.063 1086.538, 1332.712 1085.343, 1332.417 1084.866 C 1332.123 1084.390, 1332.434 1084, 1333.108 1084 C 1333.782 1084, 1334.047 1083.713, 1333.696 1083.363 C 1333.346 1083.012, 1333.946 1081.480, 1335.030 1079.959 C 1336.113 1078.437, 1337 1076.698, 1337 1076.096 C 1337 1075.493, 1337.450 1075, 1338 1075 C 1338.550 1075, 1339 1074.491, 1339 1073.868 C 1339 1073.245, 1340.002 1071.116, 1341.226 1069.135 C 1342.450 1067.154, 1343.524 1065.034, 1343.614 1064.424 C 1343.704 1063.813, 1344.887 1061.555, 1346.243 1059.407 C 1347.600 1057.258, 1348.757 1055.050, 1348.816 1054.500 C 1348.949 1053.245, 1352.262 1045.674, 1352.972 1045 C 1353.581 1044.423, 1354.236 1042.067, 1354.294 1040.250 C 1354.316 1039.563, 1354.678 1039, 1355.099 1039 C 1355.828 1039, 1356.985 1036.361, 1356.968 1034.740 C 1356.963 1034.321, 1357.626 1032.691, 1358.440 1031.116 C 1359.254 1029.542, 1359.638 1027.972, 1359.293 1027.627 C 1358.949 1027.282, 1359.133 1027, 1359.703 1027 C 1360.274 1027, 1361.318 1024.862, 1362.024 1022.250 C 1362.730 1019.638, 1363.563 1017.050, 1363.875 1016.500 C 1364.187 1015.950, 1364.567 1014.697, 1364.720 1013.717 C 1364.873 1012.736, 1365.640 1010.936, 1366.425 1009.717 C 1367.210 1008.497, 1368.175 1005.700, 1368.570 1003.500 C 1368.965 1001.300, 1369.644 999.267, 1370.079 998.981 C 1370.514 998.696, 1371.023 997.346, 1371.210 995.981 C 1371.397 994.617, 1371.903 992.938, 1372.334 992.250 C 1372.765 991.563, 1372.859 990.581, 1372.543 990.069 C 1372.226 989.557, 1372.425 988.856, 1372.984 988.510 C 1373.543 988.165, 1374.007 986.896, 1374.015 985.691 C 1374.030 983.493, 1375.915 977.433, 1377.207 975.429 C 1377.587 974.839, 1378.185 971.695, 1378.536 968.442 C 1378.887 965.188, 1379.407 962.151, 1379.690 961.693 C 1380.546 960.307, 1383 947.699, 1383 944.685 C 1383 943.136, 1383.394 941.111, 1383.876 940.184 C 1384.358 939.258, 1385.028 936.025, 1385.365 933 C 1385.701 929.975, 1386.190 926.375, 1386.452 925 C 1386.713 923.625, 1387.167 919.125, 1387.461 915 C 1387.754 910.875, 1388.200 906.150, 1388.451 904.500 C 1390.200 893.003, 1390.979 827.796, 1389.586 809.500 C 1389.084 802.900, 1388.634 796.038, 1388.586 794.250 C 1388.539 792.462, 1388.158 791, 1387.741 791 C 1387.323 791, 1387.076 789.087, 1387.192 786.750 C 1387.398 782.611, 1386.459 775.551, 1385.495 773.991 C 1385.231 773.565, 1384.803 771.705, 1384.542 769.858 C 1384.282 768.011, 1383.807 765.375, 1383.486 764 C 1383.164 762.625, 1382.692 760.150, 1382.436 758.500 C 1381.863 754.814, 1381.229 751.666, 1380.924 751 C 1380.798 750.725, 1380.591 750.050, 1380.463 749.500 C 1380.335 748.950, 1380.144 748.275, 1380.039 748 C 1379.445 746.452, 1378.742 743.017, 1378.299 739.500 C 1378.022 737.300, 1377.391 735.073, 1376.898 734.550 C 1376.404 734.028, 1376 732.603, 1376 731.383 C 1376 730.164, 1375.564 729.017, 1375.031 728.833 C 1374.498 728.650, 1373.799 726.700, 1373.477 724.500 C 1372.628 718.693, 1369.997 711, 1368.861 711 C 1368.322 711, 1368.141 710.581, 1368.457 710.069 C 1368.774 709.557, 1368.545 708.837, 1367.948 708.468 C 1367.352 708.099, 1367.107 707.163, 1367.405 706.387 C 1367.703 705.610, 1366.905 703.068, 1365.632 700.738 C 1364.358 698.407, 1362.737 694.362, 1362.028 691.750 C 1361.320 689.138, 1360.322 687, 1359.811 687 C 1359.300 687, 1359.138 686.586, 1359.450 686.081 C 1359.763 685.575, 1359.339 684.482, 1358.509 683.652 C 1357.679 682.822, 1356.986 681.323, 1356.968 680.321 C 1356.951 679.320, 1356.276 677.626, 1355.468 676.559 C 1354.661 675.491, 1354 673.836, 1354 672.880 C 1354 671.925, 1353.432 670.548, 1352.737 669.821 C 1350.404 667.381, 1348 663.086, 1347.959 661.285 C 1347.937 660.303, 1346.622 657.984, 1345.037 656.130 C 1343.452 654.277, 1342.361 652.223, 1342.613 651.565 C 1342.866 650.908, 1341.924 649.131, 1340.520 647.616 C 1339.116 646.101, 1338.184 644.511, 1338.449 644.082 C 1338.714 643.654, 1338.029 642.335, 1336.926 641.151 C 1335.824 639.968, 1335.277 638.986, 1335.711 638.970 C 1336.145 638.953, 1335.713 638.481, 1334.750 637.920 C 1333.787 637.359, 1333 636.248, 1333 635.450 C 1333 634.653, 1332.523 634, 1331.941 634 C 1331.359 634, 1331.162 633.547, 1331.504 632.993 C 1331.847 632.439, 1331.426 631.717, 1330.569 631.388 C 1329.712 631.059, 1329.260 630.388, 1329.565 629.895 C 1329.869 629.403, 1329.641 629, 1329.059 629 C 1328.477 629, 1328 628.520, 1328 627.933 C 1328 627.347, 1326.822 625.322, 1325.381 623.433 C 1323.941 621.545, 1323.111 620, 1323.537 620 C 1323.963 620, 1323.116 618.973, 1321.656 617.718 C 1320.195 616.463, 1319 615.081, 1319 614.647 C 1319 614.212, 1318.438 613.230, 1317.750 612.463 C 1314.782 609.154, 1314 608.023, 1314 607.042 C 1314 606.469, 1313.523 606, 1312.941 606 C 1312.359 606, 1312.162 605.547, 1312.504 604.993 C 1312.847 604.439, 1312.423 603.716, 1311.563 603.386 C 1310.704 603.056, 1310 602.159, 1310 601.393 C 1310 600.627, 1309.325 600, 1308.500 600 C 1307.675 600, 1307 599.530, 1307 598.955 C 1307 598.380, 1305.895 596.805, 1304.545 595.455 C 1303.195 594.105, 1302.408 592.999, 1302.795 592.999 C 1303.183 592.998, 1302.277 591.761, 1300.782 590.249 C 1299.287 588.737, 1296.587 585.713, 1294.782 583.528 C 1289.731 577.415, 1265.780 553.076, 1265.037 553.301 C 1264.675 553.410, 1262.831 551.897, 1260.939 549.938 C 1259.048 547.979, 1255.250 544.652, 1252.500 542.545 C 1249.750 540.437, 1246.768 537.896, 1245.873 536.897 C 1244.978 535.899, 1243.645 534.951, 1242.911 534.791 C 1242.177 534.631, 1240.028 533.038, 1238.135 531.250 C 1236.242 529.462, 1234.135 528, 1233.454 528 C 1232.772 528, 1231.953 527.321, 1231.635 526.491 C 1231.316 525.661, 1230.697 525.098, 1230.259 525.241 C 1229.820 525.383, 1228.345 524.456, 1226.981 523.180 C 1223.935 520.331, 1212.781 513.434, 1211.750 513.762 C 1211.338 513.893, 1211 513.550, 1211 513 C 1211 512.450, 1210.325 512, 1209.500 512 C 1208.675 512, 1208 511.550, 1208 511 C 1208 510.450, 1207.380 510, 1206.622 510 C 1205.865 510, 1204.689 509.330, 1204.009 508.511 C 1203.329 507.692, 1202.425 507.237, 1202 507.500 C 1201.575 507.763, 1200.671 507.308, 1199.991 506.489 C 1199.311 505.670, 1198.277 505, 1197.692 505 C 1197.107 505, 1195.636 504.067, 1194.423 502.927 C 1193.209 501.787, 1191.605 500.730, 1190.858 500.578 C 1188.173 500.032, 1185.451 498.619, 1182.673 496.330 C 1181.119 495.048, 1179.260 494, 1178.544 494 C 1176.738 494, 1165.575 488.853, 1165.167 487.832 C 1164.983 487.375, 1164.450 487, 1163.982 487 C 1163.513 487, 1161.863 486.486, 1160.315 485.859 C 1158.767 485.231, 1156.782 484.636, 1155.905 484.537 C 1155.028 484.438, 1152.890 483.346, 1151.155 482.110 C 1149.420 480.875, 1148 480.175, 1148 480.554 C 1148 480.934, 1147.438 480.792, 1146.750 480.238 C 1146.063 479.684, 1143.955 478.900, 1142.068 478.496 C 1140.180 478.092, 1137.149 476.926, 1135.333 475.906 C 1133.516 474.886, 1131.348 474.313, 1130.515 474.633 C 1129.682 474.952, 1129 474.689, 1129 474.048 C 1129 473.407, 1128.530 473.172, 1127.956 473.527 C 1127.382 473.882, 1126.334 473.692, 1125.628 473.106 C 1124.921 472.520, 1123.478 471.873, 1122.422 471.670 C 1120.623 471.324, 1119.697 471.023, 1115.250 469.336 C 1114.287 468.971, 1112.825 468.627, 1112 468.571 C 1111.175 468.515, 1109.938 468.112, 1109.250 467.676 C 1108.563 467.239, 1107.550 467.160, 1107 467.500 C 1106.450 467.840, 1106 467.692, 1106 467.170 C 1106 466.277, 1101.592 465.078, 1096 464.450 C 1094.625 464.296, 1092.600 463.919, 1091.500 463.613 C 1089.176 462.966, 1082.816 461.413, 1078.500 460.439 C 1076.850 460.066, 1074.037 459.815, 1072.250 459.880 C 1070.463 459.945, 1069 459.662, 1069 459.249 C 1069 458.837, 1067.312 458.455, 1065.250 458.399 C 1063.187 458.344, 1057 457.572, 1051.500 456.684 C 1044.690 455.584, 1035.386 455.084, 1022.335 455.116 C 1011.795 455.141, 1003.020 455.298, 1002.835 455.464 M 0.431 1022.500 C 0.432 1035.700, 0.574 1040.962, 0.747 1034.193 C 0.921 1027.424, 0.920 1016.624, 0.746 1010.193 C 0.572 1003.762, 0.431 1009.300, 0.431 1022.500" stroke="none" fill="#4c4c4c" fill-rule="evenodd"/><path d="M 998.287 0.740 C 1001.469 0.939, 1006.419 0.937, 1009.287 0.736 C 1012.154 0.535, 1009.550 0.372, 1003.500 0.374 C 997.450 0.376, 995.104 0.541, 998.287 0.740 M 1242 534.458 C 1242 534.675, 1246.050 538.269, 1251 542.446 C 1255.950 546.622, 1260 549.643, 1260 549.158 C 1260 548.674, 1256.625 545.692, 1252.500 542.533 C 1248.375 539.373, 1245 536.434, 1245 536.001 C 1245 535.568, 1244.325 534.955, 1243.500 534.638 C 1242.675 534.322, 1242 534.240, 1242 534.458 M 803 535.894 C 803 536.386, 799.625 539.373, 795.500 542.533 C 791.375 545.692, 788 548.666, 788 549.141 C 788 549.617, 791.825 546.801, 796.500 542.885 C 801.175 538.969, 805 535.593, 805 535.382 C 805 535.172, 804.550 535, 804 535 C 803.450 535, 803 535.402, 803 535.894 M 774.971 560.529 C 770.889 564.638, 767.815 568, 768.140 568 C 769.172 568, 783.393 554.059, 782.882 553.548 C 782.612 553.279, 779.052 556.420, 774.971 560.529 M 1265 553.287 C 1265 553.703, 1271.395 560.446, 1279.211 568.272 C 1287.028 576.097, 1292.459 581.150, 1291.281 579.500 C 1288.661 575.831, 1265 552.231, 1265 553.287 M 452.705 1577.218 C 460.494 1585.592, 484.001 1608.613, 483.999 1607.863 C 483.998 1607.663, 475.133 1598.725, 464.298 1588 C 453.463 1577.275, 448.246 1572.423, 452.705 1577.218 M 1789.500 1700.142 C 1781.358 1709.427, 1775.421 1716.716, 1778.213 1714 C 1781.092 1711.199, 1798 1691.951, 1798 1691.474 C 1798 1690.526, 1797.366 1691.172, 1789.500 1700.142 M 266.681 1710.500 C 274.726 1719.545, 279 1723.725, 279 1722.549 C 279 1722.108, 274.627 1717.418, 269.282 1712.124 L 259.564 1702.500 266.681 1710.500 M 1747.536 1743.964 C 1738.218 1753.294, 1730.805 1761.138, 1731.062 1761.395 C 1731.319 1761.652, 1739.371 1754.019, 1748.954 1744.431 C 1758.538 1734.844, 1765.951 1727, 1765.428 1727 C 1764.906 1727, 1756.854 1734.634, 1747.536 1743.964 M 301.500 1746.921 C 310.300 1755.666, 317.697 1762.626, 317.937 1762.390 C 318.553 1761.783, 287.718 1731.014, 286.500 1731.019 C 285.950 1731.021, 292.700 1738.177, 301.500 1746.921 M 1018.750 2044.740 C 1022.188 2044.936, 1027.813 2044.936, 1031.250 2044.740 C 1034.688 2044.545, 1031.875 2044.385, 1025 2044.385 C 1018.125 2044.385, 1015.313 2044.545, 1018.750 2044.740" stroke="none" fill="#444c4c" fill-rule="evenodd"/></svg>